<svg width="1088" height="264" viewBox="0 0 1088 264" fill="none" xmlns="http://www.w3.org/2000/svg">
<path d="M720.876 26.3364C727.204 26.6032 734.075 26.215 740.377 25.438C743.749 25.0223 747.15 24.9336 750.484 24.4207C750.954 24.3485 752.453 23.6313 752.69 24.249C753.065 25.2239 753.144 26.6165 753.1 27.6444C752.97 30.6302 753.338 33.8882 753.985 36.8C754.498 39.1098 754.883 41.0351 754.883 43.4059C754.883 44.7026 755.574 46.8347 754.778 47.8582C752.558 50.7116 747.69 51.8773 744.314 52.7333C739.352 53.9911 734.445 55.2967 729.319 55.5738C726.139 55.7457 723.079 55.1114 719.938 55.1114C717.045 55.1114 717.321 55.052 716.305 52.3105C715.305 49.6103 715.169 47.1789 715.169 44.2778C715.169 42.7676 714.505 41.1146 714.099 39.6538C713.792 38.5473 714.284 37.1928 714.442 36.0866C714.608 34.9264 716.348 32.2636 715.764 31.2115C715.191 30.1803 714.887 28.4154 715.83 27.4726C716.599 26.7028 727.936 25.7748 717.547 28.0011" stroke="#57B760" stroke-opacity="0.18" stroke-width="1.66333" stroke-linecap="round" stroke-linejoin="round"/>
<path d="M715.645 29.1901C716.964 30.9636 718.011 33.0645 719.344 34.7787C719.787 35.3484 720.847 35.8419 721.114 36.4433C721.838 38.0716 726.005 39.5022 727.535 40.4861C729.263 41.5967 732.818 46.4995 735.264 44.0532C739.862 39.4547 744.596 34.9591 749.176 30.3792C750.041 29.5139 750.341 28.3684 751.131 27.5783C753.536 25.173 749.533 25.3852 748.225 25.3852" stroke="#57B760" stroke-opacity="0.18" stroke-width="1.66333" stroke-linecap="round" stroke-linejoin="round"/>
<path d="M200.957 56.5828C201.165 53.3158 200.988 51.8478 197.91 50.7353C196.759 50.3193 195.038 50.5396 194.173 51.4297C192.409 53.2451 192.972 55.3232 193.685 57.4862C195.714 63.6475 205.667 63.8065 208.651 58.0885C210.101 55.3094 210.843 51.8681 211.866 48.9033C213.135 45.2245 215.201 41.8204 216.412 38.1119C217.661 34.286 218.537 30.3746 219.896 26.5844C220.518 24.8513 221.04 21.1136 222.489 19.8335C225.666 17.027 228.468 21.9883 228.676 24.6687C228.876 27.2574 229.593 30.0775 229.593 32.574C229.593 33.5167 229.212 34.4358 228.836 35.276C228.528 35.9634 227.147 35.6304 227.026 34.9665C226.671 33.0258 229.194 30.1084 225.351 30.5328" stroke="#57B760" stroke-opacity="0.18" stroke-width="1.66333" stroke-linecap="round" stroke-linejoin="round"/>
<path d="M971.18 70.5568C969.113 70.8625 966.681 71.0239 966.189 73.4851C965.808 75.3925 965.952 77.3556 967.095 79.0104C969.049 81.8382 971.952 83.4885 975.448 82.9059C978.573 82.3849 982.866 79.5524 982.866 76.0347C982.866 74.051 981.438 72.0547 980.256 70.5703C978.989 68.9793 977.894 67.3064 976.3 66.0053C974.149 64.2505 972.411 64.0782 970.477 66.1473C969.418 67.2796 968.417 68.8242 967.954 70.3065C967.726 71.0373 967.893 71.6231 967.893 72.3557C967.893 73.3321 967.712 71.892 967.893 71.4089" stroke="#57B760" stroke-opacity="0.18" stroke-width="1.66333" stroke-linecap="round" stroke-linejoin="round"/>
<path d="M981.892 76.1459C983.651 77.7075 985.142 79.12 988.252 79.1962C990.43 79.2496 992.607 78.706 994.648 78.121C996.109 77.7022 1000.79 75.4837 996.997 75.3044" stroke="#57B760" stroke-opacity="0.18" stroke-width="1.66333" stroke-linecap="round" stroke-linejoin="round"/>
<path d="M1000.03 62.5225C997.71 65.0857 994.506 70.1084 995.709 73.9586C996.132 75.3125 996.747 76.224 997.542 77.3806C999.142 79.7083 1001.62 78.9828 1003.87 78.3748C1005.5 77.934 1007.44 76.5454 1008.07 74.9662C1008.93 72.7867 1007.13 69.3793 1005.63 67.8787C1003.96 66.2033 1002.63 64.165 1000.76 62.6983C1000.26 62.308 999.887 61.8848 999.24 62.0288C998.511 62.1906 998.211 62.8877 999.179 62.8877" stroke="#57B760" stroke-opacity="0.18" stroke-width="1.66333" stroke-linecap="round" stroke-linejoin="round"/>
<path d="M458.327 40.9222C463.229 41.1417 468.552 40.8223 473.434 40.1831C476.046 39.841 478.681 39.768 481.264 39.3461C481.628 39.2867 482.789 38.6967 482.973 39.2048C483.264 40.0069 483.325 41.1526 483.29 41.9982C483.19 44.4547 483.475 47.135 483.976 49.5306C484.374 51.4308 484.672 53.0147 484.672 54.9652C484.672 56.032 485.207 57.7861 484.59 58.6281C482.871 60.9756 479.1 61.9346 476.484 62.6388C472.64 63.6736 468.839 64.7477 464.867 64.9757C462.404 65.1171 460.034 64.5953 457.6 64.5953C455.359 64.5953 455.572 64.5464 454.786 62.291C454.011 60.0695 453.906 58.0692 453.906 55.6825C453.906 54.4401 453.391 53.0801 453.077 51.8783C452.839 50.968 453.22 49.8537 453.343 48.9436C453.471 47.9892 454.819 45.7984 454.366 44.9329C453.922 44.0845 453.687 42.6325 454.417 41.8569C455.014 41.2236 463.796 40.4602 455.748 42.2917" stroke="#57B760" stroke-opacity="0.18" stroke-width="1.66333" stroke-linecap="round" stroke-linejoin="round"/>
<path d="M454.274 43.2699C455.297 44.729 456.107 46.4574 457.14 47.8676C457.483 48.3363 458.304 48.7423 458.511 49.2371C459.072 50.5767 462.3 51.7536 463.486 52.5631C464.824 53.4768 467.578 57.5103 469.473 55.4978C473.036 51.7146 476.703 48.016 480.251 44.2482C480.921 43.5363 481.153 42.5939 481.765 41.9439C483.629 39.9651 480.527 40.1396 479.514 40.1396" stroke="#57B760" stroke-opacity="0.18" stroke-width="1.66333" stroke-linecap="round" stroke-linejoin="round"/>
<path d="M681 163.578C682.53 162.818 690.463 157.087 688.35 161.916C687.667 163.478 686.487 165.209 685.307 166.433C683.381 168.433 681.691 176.928 685.541 173.363C687.034 171.98 690.702 163.721 693.219 166.106C696.797 169.495 692.763 170.947 690.481 172.216C687.174 174.052 687.807 179.938 691.955 177.272C693.497 176.281 696.831 171.764 698.487 174.744C700.23 177.882 694.113 179.829 694.507 182.984C694.807 185.387 697.042 184.201 698.276 183.475C699.056 183.016 698.021 181.138 698.697 180.011" stroke="#57B760" stroke-opacity="0.18" stroke-width="1.66333" stroke-linecap="round" stroke-linejoin="round"/>
<path d="M101.175 70.4145C101.8 69.7309 102.997 68.4659 101.319 68.2422C100.94 68.1916 100.585 67.9997 100.213 68.1449C99.0657 68.5922 98 69.5771 98 70.748C98 72.6182 100.384 73.0232 102.115 72.999C105.037 72.9582 105.926 70.5088 106.958 68.5247C108 66.5206 109.158 64.5489 110.239 62.5591C111.463 60.3075 113.47 58.514 114.74 56.2831C115.284 55.3264 115.995 54.484 116.696 53.6106C117.783 52.2556 118.558 50.8887 119.336 49.3864C119.974 48.1538 120.682 47.0283 121.463 45.8617C121.779 45.3899 121.661 44.6672 122.265 45.1715C122.724 45.5545 123.454 45.806 124.072 45.9033C126.772 46.3288 129.255 46.7791 132.035 46.5888C134.847 46.3964 137.658 46.0497 140.426 45.5884C141.368 45.4316 140.966 45.6204 140.523 46.1118C139.77 46.9453 139.127 47.8286 138.406 48.6731C137.466 49.7745 137.135 51.1009 136.578 52.36C135.967 53.7441 135.239 55.0662 134.654 56.473C133.525 59.1918 131.877 61.6713 129.839 63.9532C128.657 65.2757 127.198 67.5854 124.986 67.4919C121.562 67.3471 123.874 61.5485 125.509 60.4146C126.39 59.8042 127.353 60.4613 127.46 61.2807C127.608 62.4066 127.159 63.9494 125.889 64.4998C124.549 65.0804 123.521 65.0107 124.553 63.5132C125.177 62.6071 125.548 63.6043 125.803 63.1612" stroke="#57B760" stroke-opacity="0.18" stroke-width="1.66333" stroke-linecap="round" stroke-linejoin="round"/>
<path d="M7.87647 233.336C14.2042 233.603 21.0749 233.215 27.3769 232.438C30.749 232.022 34.1503 231.934 37.4838 231.421C37.9535 231.348 39.4526 230.631 39.6901 231.249C40.0651 232.224 40.1444 233.617 40.0997 234.644C39.9699 237.63 40.3378 240.888 40.9849 243.8C41.4981 246.11 41.8832 248.035 41.8832 250.406C41.8832 251.703 42.5736 253.835 41.7776 254.858C39.5582 257.712 34.6904 258.877 31.3139 259.733C26.3524 260.991 21.4451 262.297 16.3187 262.574C13.1388 262.746 10.0792 262.111 6.93844 262.111C4.04544 262.111 4.32061 262.052 3.30524 259.311C2.30515 256.61 2.16904 254.179 2.16904 251.278C2.16904 249.768 1.50468 248.115 1.09889 246.654C0.791545 245.547 1.28437 244.193 1.44239 243.087C1.60813 241.926 3.34804 239.264 2.76356 238.212C2.19068 237.18 1.88682 235.415 2.82962 234.473C3.59943 233.703 14.9363 232.775 4.54713 235.001" stroke="#57B760" stroke-opacity="0.18" stroke-width="1.66333" stroke-linecap="round" stroke-linejoin="round"/>
<path d="M2.64471 236.19C3.96451 237.964 5.01076 240.065 6.34398 241.779C6.78709 242.348 7.84703 242.842 8.11434 243.443C8.83803 245.072 13.0047 246.502 14.5352 247.486C16.2628 248.597 19.8177 253.5 22.264 251.053C26.8625 246.455 31.596 241.959 36.1759 237.379C37.0412 236.514 37.3411 235.368 38.1312 234.578C40.5365 232.173 36.5328 232.385 35.2246 232.385" stroke="#57B760" stroke-opacity="0.18" stroke-width="1.66333" stroke-linecap="round" stroke-linejoin="round"/>
<path d="M49.3697 154.841C51.801 150.458 51.6575 149.206 51.1031 144.795C50.7977 142.366 50.681 139.992 50.063 137.602C48.958 133.328 48.5994 127.573 52.0594 124.132C58.8676 117.361 71.5462 126.991 67.7073 135.581C66.2462 138.85 63.7216 141.271 61.8976 144.355C61.1661 145.592 60.7564 146.932 59.8056 148.088C58.8939 149.196 57.7615 150.576 57.7615 151.952C57.7615 153.114 58.11 154.622 57.2833 155.649C56.1414 157.069 56.5473 156.339 54.8566 156.339C53.6944 156.339 51.9806 155.42 51.0433 154.675C50.3741 154.142 50.0152 155.682 50.0152 154.199C50.0152 152.926 50.4273 153.985 49.5849 153.985" stroke="#57B760" stroke-opacity="0.18" stroke-width="1.66333" stroke-linecap="round" stroke-linejoin="round"/>
<path d="M54.7491 158.907C52.448 158.225 46.0785 156.701 47.5527 158.586C49.3314 160.86 50.0921 159.721 52.2746 160.203C53.3907 160.45 54.4789 163.876 53.2429 163.948C51.4776 164.051 50.307 161.689 48.509 161.689C46.8726 161.689 46.9899 163.831 47.9711 164.59C49.2669 165.592 50.757 164.515 51.6291 166.076C53.0072 168.543 49.2428 168.142 48.1743 167.562C47.0979 166.978 46.0738 166.066 45.2814 165.541" stroke="#57B760" stroke-opacity="0.18" stroke-width="1.66333" stroke-linecap="round" stroke-linejoin="round"/>
<path d="M49.3698 154.146C49.399 154.332 49.4295 155.59 49.9346 155.59C50.2065 155.59 50.3316 155.426 50.5801 155.563C50.8723 155.725 51.1464 156.105 51.4259 156.327C51.6722 156.523 52.4032 156.499 52.5436 156.743C52.7729 157.142 53.2386 157.361 53.6732 157.409C54.2367 157.471 54.4451 157.753 55.045 157.62C55.2283 157.58 55.2468 157.463 55.4185 157.463C55.6837 157.463 55.7981 157.589 55.9983 157.367C56.2199 157.123 56.5819 157.008 56.6886 156.636C56.8338 156.131 57.366 155.865 56.5781 156.179" stroke="#57B760" stroke-opacity="0.18" stroke-width="1.66333" stroke-linecap="round" stroke-linejoin="round"/>
<path d="M59.7518 132.96C58.7893 132.965 57.9938 133.026 57.6658 134.041C57.4426 134.732 57.4386 135.411 57.4386 136.128C57.4386 136.825 57.869 137.386 57.869 138.042C57.869 138.91 57.1714 138.768 56.5809 139.032C56.0232 139.281 55.6191 139.49 55.3168 140.048C55.0174 140.601 55.2436 141.67 55.2839 142.272C55.3186 142.789 55.5659 143.888 55.2062 144.325C55.0107 144.563 53.9426 144.93 54.6414 144.409" stroke="#57B760" stroke-opacity="0.18" stroke-width="1.66333" stroke-linecap="round" stroke-linejoin="round"/>
<path d="M67.8746 142.643C68.6453 143.152 69.4308 143.579 70.2923 143.9C70.6536 144.035 71.1292 144.275 71.0484 143.713" stroke="#57B760" stroke-opacity="0.18" stroke-width="1.66333" stroke-linecap="round" stroke-linejoin="round"/>
<path d="M70.6718 135.26C72.0376 135.587 73.3942 135.956 74.7482 136.318C74.9734 136.378 74.4565 135.812 74.4374 135.795" stroke="#57B760" stroke-opacity="0.18" stroke-width="1.66333" stroke-linecap="round" stroke-linejoin="round"/>
<path d="M71.0483 128.251C72.4628 128.047 73.873 127.793 75.2801 127.544C75.9279 127.429 76.2022 127.514 75.836 126.967" stroke="#57B760" stroke-opacity="0.18" stroke-width="1.66333" stroke-linecap="round" stroke-linejoin="round"/>
<path d="M63.4098 120.815C64.5273 120.62 65.496 120.431 66.5059 119.929C66.9786 119.694 67.4338 119.412 67.9284 119.222C68.5162 118.996 68.5283 119.065 67.8746 118.675" stroke="#57B760" stroke-opacity="0.18" stroke-width="1.66333" stroke-linecap="round" stroke-linejoin="round"/>
<path d="M53.6731 116C53.51 117.135 53.5639 117.816 54.0258 118.844C54.2747 119.399 54.4853 120.1 54.6085 120.699C54.651 120.905 54.6746 121.023 54.8147 121.178C54.8672 121.236 54.6747 120.547 54.6414 120.441" stroke="#57B760" stroke-opacity="0.18" stroke-width="1.66333" stroke-linecap="round" stroke-linejoin="round"/>
<path d="M45.4428 120.548C45.7999 121.73 46.3089 122.864 46.6143 124.049C46.7688 124.648 46.6722 124.684 46.4111 124.079" stroke="#57B760" stroke-opacity="0.18" stroke-width="1.66333" stroke-linecap="round" stroke-linejoin="round"/>
<path d="M42 129.054C43.2222 130.106 44.2245 131.412 45.1738 132.704C45.2928 132.866 45.4303 132.923 45.5623 133.055C45.8622 133.353 45.3445 132.679 45.2814 132.585" stroke="#57B760" stroke-opacity="0.18" stroke-width="1.66333" stroke-linecap="round" stroke-linejoin="round"/>
<path d="M313.97 38.4646C317.674 29.7306 316.157 22.1201 316.157 13.0687C316.157 11.3079 315.837 5.94438 317.688 4.98443C320.606 3.47051 323.333 2.46032 326.776 2.46032C329.065 2.46032 331.365 2.52626 333.653 2.46032C335.941 2.39436 338.158 1.4635 340.42 1.18636C344.63 0.6707 349.009 1.38876 353.166 1.38876C356.466 1.38876 359.881 1.81738 363.056 1.81738C363.619 1.81738 365.917 2.08614 366.288 2.41269C367.421 3.41211 367.096 5.01487 367.989 5.8893" stroke="#57B760" stroke-opacity="0.18" stroke-width="1.66333" stroke-linecap="round" stroke-linejoin="round"/>
<path d="M367.771 6.66324C367.915 9.24065 367.969 12.8575 369.029 15.3759C369.717 17.0079 369.169 19.18 369.308 20.9182C369.575 24.2549 369.078 27.5071 369.078 30.7442C369.078 35.0866 369.296 39.3735 369.296 43.6922C369.296 47.399 365.674 46.7784 362.809 46.2576C360.335 45.8077 357.015 46.7098 354.436 46.7417C349.46 46.8031 344.462 47.1773 339.479 47.1773C335.317 47.1773 332.227 45.9687 328.394 44.5151C326.348 43.7388 325.111 43.91 322.913 43.91C320.831 43.91 319.119 43.5845 317.032 44.2368C315.81 44.6183 313.624 44.2889 312.929 43.0388C312.096 41.5397 313.752 40.8897 313.752 39.6626C313.752 38.6323 313.623 35.686 313.97 38.4646" stroke="#57B760" stroke-opacity="0.18" stroke-width="1.66333" stroke-linecap="round" stroke-linejoin="round"/>
<path d="M338.801 12.3265C338.801 12.3265 339.673 12.7622 340.544 13.6334C341.415 14.2869 343.249 13.9602 344.791 13.9602C345.603 13.9602 346.46 13.3276 347.187 13.0042C348.661 12.3491 347.782 13.5813 347.429 14.2869C347.039 15.068 347.485 16.5203 348.192 17.0097C349.358 17.8171 350.512 17.1202 351.653 16.5498C352.126 16.313 351.996 16.2032 352.143 16.5256C352.341 16.9629 352.306 17.5974 352.306 18.0745C352.306 19.1604 352.235 20.9645 351.653 21.9105C350.887 23.155 350.113 23.9605 348.881 24.8753C347.665 25.779 346.058 27.356 344.44 27.356C341.28 27.356 337.926 26.6673 336.345 23.5926C335.675 22.2893 334.445 21.2221 334.445 19.7323C334.445 18.4893 334.034 16.9998 334.445 15.8116C334.944 14.3713 336.188 13.0042 335.752 13.0042C335.974 13.0677 337.93 11.8909 338.801 12.3265Z" stroke="#57B760" stroke-opacity="0.18" stroke-width="1.66333" stroke-linecap="round" stroke-linejoin="round"/>
<path d="M342.395 11.5642C343.621 11.1106 346.42 10.1603 347.078 8.67807C347.588 7.53253 345.905 7.31671 345.009 7.31671C343.923 7.31671 342.636 8.81783 342.347 9.76716C342.186 10.2951 342.034 10.8354 341.875 11.3705C341.799 11.6285 341.901 11.8155 341.954 12.0542C341.994 12.236 343.656 11.3636 343.593 11.1137" stroke="#57B760" stroke-opacity="0.18" stroke-width="1.66333" stroke-linecap="round" stroke-linejoin="round"/>
<path d="M363.961 36.0732L316.179 37.1227C311.077 37.2347 307 41.4024 307 46.5052C307 51.6883 311.202 55.89 316.385 55.89H364.178C369.651 55.89 374.088 51.4533 374.088 45.9804C374.088 40.4223 369.517 35.9512 363.961 36.0732Z" fill="#57B760" fill-opacity="0.18" stroke="#57B760" stroke-opacity="0.18" stroke-width="1.66333"/>
<path d="M326.742 36.8596C327.465 37.9813 328.09 39.3274 328.92 40.365C329.338 40.8869 329.271 40.7808 330.08 40.481C331.431 39.9806 332.962 40.3392 334.372 40.3392C335.609 40.3392 337.048 39.6932 338.251 40.017C339.644 40.3922 341.287 39.6759 342.658 39.6433C344.311 39.6039 345.886 39.7593 347.53 39.7593C348.521 39.7593 349.487 39.1793 350.404 39.1793C350.936 39.1793 352.453 39.6011 352.492 38.6252C352.511 38.1497 352.724 37.688 352.724 37.2075C352.724 36.5576 352.335 36.8391 351.68 36.5116" stroke="#57B760" stroke-opacity="0.18" stroke-width="1.66333" stroke-linecap="round" stroke-linejoin="round"/>
<path d="M854.957 47.5828C855.165 44.3158 854.988 42.8478 851.91 41.7353C850.759 41.3193 849.038 41.5396 848.173 42.4297C846.409 44.2451 846.972 46.3232 847.685 48.4862C849.714 54.6475 859.667 54.8065 862.651 49.0885C864.101 46.3094 864.843 42.8681 865.866 39.9033C867.135 36.2245 869.201 32.8204 870.412 29.1119C871.661 25.286 872.537 21.3746 873.896 17.5844C874.518 15.8513 875.04 12.1136 876.489 10.8335C879.666 8.02702 882.468 12.9883 882.676 15.6687C882.876 18.2574 883.593 21.0775 883.593 23.574C883.593 24.5167 883.212 25.4358 882.836 26.276C882.528 26.9634 881.147 26.6304 881.026 25.9665C880.671 24.0258 883.194 21.1084 879.351 21.5328" stroke="#57B760" stroke-opacity="0.18" stroke-width="1.66333" stroke-linecap="round" stroke-linejoin="round"/>
<path d="M1052.88 222.336C1059.2 222.603 1066.07 222.215 1072.38 221.438C1075.75 221.022 1079.15 220.934 1082.48 220.421C1082.95 220.348 1084.45 219.631 1084.69 220.249C1085.07 221.224 1085.14 222.617 1085.1 223.644C1084.97 226.63 1085.34 229.888 1085.98 232.8C1086.5 235.11 1086.88 237.035 1086.88 239.406C1086.88 240.703 1087.57 242.835 1086.78 243.858C1084.56 246.712 1079.69 247.877 1076.31 248.733C1071.35 249.991 1066.45 251.297 1061.32 251.574C1058.14 251.746 1055.08 251.111 1051.94 251.111C1049.05 251.111 1049.32 251.052 1048.31 248.311C1047.31 245.61 1047.17 243.179 1047.17 240.278C1047.17 238.768 1046.5 237.115 1046.1 235.654C1045.79 234.547 1046.28 233.193 1046.44 232.087C1046.61 230.926 1048.35 228.264 1047.76 227.212C1047.19 226.18 1046.89 224.415 1047.83 223.473C1048.6 222.703 1059.94 221.775 1049.55 224.001" stroke="#57B760" stroke-opacity="0.18" stroke-width="1.66333" stroke-linecap="round" stroke-linejoin="round"/>
<path d="M1047.64 225.19C1048.96 226.964 1050.01 229.065 1051.34 230.779C1051.79 231.348 1052.85 231.842 1053.11 232.443C1053.84 234.072 1058 235.502 1059.54 236.486C1061.26 237.597 1064.82 242.5 1067.26 240.053C1071.86 235.455 1076.6 230.959 1081.18 226.379C1082.04 225.514 1082.34 224.368 1083.13 223.578C1085.54 221.173 1081.53 221.385 1080.22 221.385" stroke="#57B760" stroke-opacity="0.18" stroke-width="1.66333" stroke-linecap="round" stroke-linejoin="round"/>
<path d="M573.544 51.2728C574.438 50.1357 576.152 48.0316 573.75 47.6595C573.207 47.5754 572.7 47.2562 572.167 47.4977C570.525 48.2418 569 49.8799 569 51.8275C569 54.9383 572.412 55.6119 574.89 55.5717C579.072 55.5037 580.344 51.4296 581.821 48.1295C583.313 44.7959 584.97 41.5163 586.518 38.2066C588.269 34.4616 591.142 31.4782 592.959 27.7675C593.738 26.1763 594.755 24.7751 595.758 23.3222C597.314 21.0685 598.424 18.7949 599.537 16.2961C600.45 14.2459 601.463 12.3737 602.582 10.4332C603.034 9.64852 602.864 8.44639 603.729 9.28532C604.386 9.92229 605.431 10.3407 606.315 10.5026C610.179 11.2102 613.733 11.9592 617.713 11.6428C621.738 11.3228 625.76 10.7461 629.722 9.97869C631.069 9.71782 630.495 10.0319 629.86 10.8493C628.783 12.2356 627.863 13.7049 626.831 15.1096C625.485 16.9415 625.011 19.1478 624.215 21.2421C623.339 23.5443 622.297 25.7434 621.461 28.0834C619.844 32.6057 617.486 36.7299 614.569 40.5255C612.878 42.7252 610.789 46.567 607.623 46.4115C602.723 46.1708 606.032 36.5256 608.372 34.6396C609.633 33.6243 611.011 34.7173 611.165 36.0802C611.376 37.9529 610.733 40.5192 608.916 41.4346C606.998 42.4004 605.527 42.2845 607.003 39.7936C607.896 38.2865 608.427 39.9452 608.793 39.2081" stroke="#57B760" stroke-opacity="0.18" stroke-width="1.66333" stroke-linecap="round" stroke-linejoin="round"/>
<path d="M1007.54 158.273C1008.44 157.136 1010.15 155.032 1007.75 154.66C1007.21 154.575 1006.7 154.256 1006.17 154.498C1004.53 155.242 1003 156.88 1003 158.827C1003 161.938 1006.41 162.612 1008.89 162.572C1013.07 162.504 1014.34 158.43 1015.82 155.129C1017.31 151.796 1018.97 148.516 1020.52 145.207C1022.27 141.462 1025.14 138.478 1026.96 134.768C1027.74 133.176 1028.76 131.775 1029.76 130.322C1031.31 128.069 1032.42 125.795 1033.54 123.296C1034.45 121.246 1035.46 119.374 1036.58 117.433C1037.03 116.649 1036.86 115.446 1037.73 116.285C1038.39 116.922 1039.43 117.341 1040.31 117.503C1044.18 118.21 1047.73 118.959 1051.71 118.643C1055.74 118.323 1059.76 117.746 1063.72 116.979C1065.07 116.718 1064.5 117.032 1063.86 117.849C1062.78 119.236 1061.86 120.705 1060.83 122.11C1059.48 123.942 1059.01 126.148 1058.21 128.242C1057.34 130.544 1056.3 132.743 1055.46 135.083C1053.84 139.606 1051.49 143.73 1048.57 147.526C1046.88 149.725 1044.79 153.567 1041.62 153.411C1036.72 153.171 1040.03 143.526 1042.37 141.64C1043.63 140.624 1045.01 141.717 1045.16 143.08C1045.38 144.953 1044.73 147.519 1042.92 148.435C1041 149.4 1039.53 149.285 1041 146.794C1041.9 145.287 1042.43 146.945 1042.79 146.208" stroke="#57B760" stroke-opacity="0.18" stroke-width="1.66333" stroke-linecap="round" stroke-linejoin="round"/>
</svg>
