<svg width="1011" height="322" viewBox="0 0 1011 322" fill="none" xmlns="http://www.w3.org/2000/svg">
<g clip-path="url(#clip0_16_466)">
<path d="M702.97 174.465C706.674 165.731 705.157 158.12 705.157 149.069C705.157 147.308 704.837 141.944 706.688 140.984C709.606 139.471 712.333 138.46 715.776 138.46C718.065 138.46 720.365 138.526 722.653 138.46C724.941 138.394 727.158 137.463 729.42 137.186C733.63 136.671 738.009 137.389 742.166 137.389C745.466 137.389 748.881 137.817 752.056 137.817C752.619 137.817 754.917 138.086 755.288 138.413C756.421 139.412 756.096 141.015 756.989 141.889" stroke="#57B760" stroke-opacity="0.18" stroke-width="1.66333" stroke-linecap="round" stroke-linejoin="round"/>
<path d="M756.771 142.663C756.915 145.241 756.969 148.857 758.029 151.376C758.717 153.008 758.169 155.18 758.308 156.918C758.575 160.255 758.078 163.507 758.078 166.744C758.078 171.087 758.296 175.374 758.296 179.692C758.296 183.399 754.674 182.778 751.809 182.258C749.335 181.808 746.015 182.71 743.436 182.742C738.46 182.803 733.462 183.177 728.479 183.177C724.317 183.177 721.227 181.969 717.394 180.515C715.348 179.739 714.111 179.91 711.913 179.91C709.831 179.91 708.119 179.585 706.032 180.237C704.81 180.618 702.624 180.289 701.929 179.039C701.096 177.54 702.752 176.89 702.752 175.663C702.752 174.632 702.623 171.686 702.97 174.465" stroke="#57B760" stroke-opacity="0.18" stroke-width="1.66333" stroke-linecap="round" stroke-linejoin="round"/>
<path d="M727.801 148.326C727.801 148.326 728.673 148.762 729.544 149.633C730.415 150.287 732.249 149.96 733.791 149.96C734.603 149.96 735.46 149.328 736.187 149.004C737.661 148.349 736.782 149.581 736.429 150.287C736.039 151.068 736.485 152.52 737.192 153.01C738.358 153.817 739.512 153.12 740.653 152.55C741.126 152.313 740.996 152.203 741.143 152.526C741.341 152.963 741.306 153.597 741.306 154.075C741.306 155.16 741.235 156.964 740.653 157.91C739.887 159.155 739.113 159.96 737.881 160.875C736.665 161.779 735.058 163.356 733.44 163.356C730.28 163.356 726.926 162.667 725.345 159.593C724.675 158.289 723.445 157.222 723.445 155.732C723.445 154.489 723.034 153 723.445 151.812C723.944 150.371 725.188 149.004 724.752 149.004C724.974 149.068 726.93 147.891 727.801 148.326Z" stroke="#57B760" stroke-opacity="0.18" stroke-width="1.66333" stroke-linecap="round" stroke-linejoin="round"/>
<path d="M731.395 147.564C732.621 147.111 735.42 146.16 736.078 144.678C736.588 143.533 734.905 143.317 734.009 143.317C732.923 143.317 731.636 144.818 731.347 145.767C731.186 146.295 731.034 146.835 730.875 147.371C730.799 147.629 730.901 147.816 730.954 148.054C730.994 148.236 732.656 147.364 732.593 147.114" stroke="#57B760" stroke-opacity="0.18" stroke-width="1.66333" stroke-linecap="round" stroke-linejoin="round"/>
<path d="M752.961 172.073L705.179 173.123C700.077 173.235 696 177.402 696 182.505C696 187.688 700.202 191.89 705.385 191.89H753.178C758.651 191.89 763.088 187.453 763.088 181.98C763.088 176.422 758.517 171.951 752.961 172.073Z" fill="#57B760" fill-opacity="0.18" stroke="#57B760" stroke-opacity="0.18" stroke-width="1.66333"/>
<path d="M715.742 172.86C716.465 173.981 717.09 175.327 717.92 176.365C718.338 176.887 718.271 176.781 719.08 176.481C720.431 175.981 721.962 176.339 723.372 176.339C724.609 176.339 726.048 175.693 727.251 176.017C728.644 176.392 730.287 175.676 731.658 175.643C733.311 175.604 734.886 175.759 736.53 175.759C737.521 175.759 738.487 175.179 739.404 175.179C739.936 175.179 741.453 175.601 741.492 174.625C741.511 174.15 741.724 173.688 741.724 173.208C741.724 172.558 741.335 172.839 740.68 172.512" stroke="#57B760" stroke-opacity="0.18" stroke-width="1.66333" stroke-linecap="round" stroke-linejoin="round"/>
<path d="M903.18 189.557C901.113 189.863 898.681 190.024 898.189 192.485C897.808 194.393 897.952 196.356 899.095 198.01C901.049 200.838 903.952 202.489 907.448 201.906C910.573 201.385 914.867 198.552 914.867 195.035C914.867 193.051 913.438 191.055 912.256 189.57C910.989 187.979 909.895 186.306 908.3 185.005C906.149 183.25 904.411 183.078 902.477 185.147C901.418 186.28 900.418 187.824 899.954 189.307C899.726 190.037 899.893 190.623 899.893 191.356C899.893 192.332 899.712 190.892 899.893 190.409" stroke="#57B760" stroke-opacity="0.18" stroke-width="1.66333" stroke-linecap="round" stroke-linejoin="round"/>
<path d="M913.893 195.146C915.651 196.707 917.142 198.12 920.252 198.196C922.43 198.25 924.607 197.706 926.648 197.121C928.109 196.702 932.793 194.484 928.997 194.304" stroke="#57B760" stroke-opacity="0.18" stroke-width="1.66333" stroke-linecap="round" stroke-linejoin="round"/>
<path d="M932.031 181.522C929.71 184.086 926.506 189.108 927.709 192.959C928.132 194.312 928.747 195.224 929.542 196.381C931.142 198.708 933.622 197.983 935.872 197.375C937.503 196.934 939.441 195.545 940.065 193.966C940.927 191.787 939.131 188.379 937.631 186.879C935.955 185.203 934.628 183.165 932.761 181.698C932.265 181.308 931.887 180.885 931.24 181.029C930.511 181.191 930.211 181.888 931.179 181.888" stroke="#57B760" stroke-opacity="0.18" stroke-width="1.66333" stroke-linecap="round" stroke-linejoin="round"/>
<path d="M794.18 240.557C792.113 240.863 789.681 241.024 789.189 243.485C788.808 245.393 788.952 247.356 790.095 249.01C792.049 251.838 794.952 253.489 798.448 252.906C801.573 252.385 805.867 249.552 805.867 246.035C805.867 244.051 804.438 242.055 803.256 240.57C801.989 238.979 800.895 237.306 799.3 236.005C797.149 234.25 795.411 234.078 793.477 236.147C792.418 237.28 791.418 238.824 790.954 240.307C790.726 241.037 790.893 241.623 790.893 242.356C790.893 243.332 790.712 241.892 790.893 241.409" stroke="#57B760" stroke-opacity="0.18" stroke-width="1.66333" stroke-linecap="round" stroke-linejoin="round"/>
<path d="M804.893 246.146C806.651 247.707 808.142 249.12 811.252 249.196C813.43 249.25 815.607 248.706 817.648 248.121C819.109 247.702 823.793 245.484 819.997 245.304" stroke="#57B760" stroke-opacity="0.18" stroke-width="1.66333" stroke-linecap="round" stroke-linejoin="round"/>
<path d="M823.031 232.522C820.71 235.086 817.506 240.108 818.709 243.959C819.132 245.312 819.747 246.224 820.542 247.381C822.142 249.708 824.622 248.983 826.872 248.375C828.503 247.934 830.441 246.545 831.065 244.966C831.927 242.787 830.131 239.379 828.631 237.879C826.955 236.203 825.628 234.165 823.761 232.698C823.265 232.308 822.887 231.885 822.24 232.029C821.511 232.191 821.211 232.888 822.179 232.888" stroke="#57B760" stroke-opacity="0.18" stroke-width="1.66333" stroke-linecap="round" stroke-linejoin="round"/>
<path d="M605.643 231.443C603.576 231.749 601.145 231.911 600.652 234.372C600.271 236.279 600.415 238.242 601.559 239.897C603.512 242.725 606.415 244.375 609.911 243.793C613.037 243.272 617.33 240.439 617.33 236.921C617.33 234.938 615.901 232.941 614.719 231.457C613.452 229.866 612.358 228.193 610.763 226.892C608.612 225.137 606.874 224.965 604.94 227.034C603.882 228.166 602.881 229.711 602.417 231.193C602.189 231.924 602.357 232.51 602.357 233.242C602.357 234.219 602.175 232.779 602.357 232.296" stroke="#57B760" stroke-opacity="0.18" stroke-width="1.66333" stroke-linecap="round" stroke-linejoin="round"/>
<path d="M616.356 237.033C618.115 238.594 619.605 240.007 622.716 240.083C624.893 240.136 627.07 239.593 629.111 239.008C630.572 238.589 635.256 236.37 631.46 236.191" stroke="#57B760" stroke-opacity="0.18" stroke-width="1.66333" stroke-linecap="round" stroke-linejoin="round"/>
<path d="M634.494 223.409C632.173 225.972 628.969 230.995 630.173 234.845C630.596 236.199 631.21 237.111 632.005 238.267C633.606 240.595 636.086 239.869 638.335 239.261C639.966 238.821 641.904 237.432 642.528 235.853C643.39 233.673 641.594 230.266 640.094 228.765C638.418 227.09 637.091 225.052 635.224 223.585C634.728 223.195 634.351 222.771 633.703 222.915C632.975 223.077 632.675 223.774 633.642 223.774" stroke="#57B760" stroke-opacity="0.18" stroke-width="1.66333" stroke-linecap="round" stroke-linejoin="round"/>
<path d="M120.542 167.311C124.642 159.881 124.4 157.759 123.465 150.28C122.95 146.161 122.753 142.138 121.711 138.086C119.848 130.84 119.244 121.084 125.077 115.25C136.557 103.771 157.934 120.096 151.461 134.659C148.998 140.202 144.741 144.306 141.665 149.534C140.432 151.631 139.741 153.904 138.138 155.863C136.601 157.742 134.692 160.08 134.692 162.414C134.692 164.384 135.279 166.94 133.885 168.682C131.96 171.089 132.644 169.851 129.794 169.851C127.834 169.851 124.945 168.293 123.364 167.029C122.236 166.127 121.631 168.737 121.631 166.223C121.631 164.065 122.326 165.86 120.905 165.86" stroke="#57B760" stroke-opacity="0.18" stroke-width="1.66333" stroke-linecap="round" stroke-linejoin="round"/>
<path d="M129.613 174.205C125.733 173.048 114.993 170.465 117.479 173.66C120.478 177.516 121.76 175.584 125.44 176.401C127.322 176.82 129.157 182.628 127.073 182.75C124.097 182.926 122.123 178.921 119.091 178.921C116.332 178.921 116.53 182.552 118.184 183.839C120.369 185.538 122.882 183.712 124.352 186.358C126.676 190.541 120.328 189.86 118.527 188.878C116.712 187.888 114.985 186.342 113.649 185.451" stroke="#57B760" stroke-opacity="0.18" stroke-width="1.66333" stroke-linecap="round" stroke-linejoin="round"/>
<path d="M120.543 166.132C120.592 166.448 120.643 168.581 121.495 168.581C121.953 168.581 122.164 168.303 122.583 168.536C123.076 168.809 123.538 169.454 124.009 169.831C124.425 170.163 125.657 170.122 125.894 170.536C126.281 171.213 127.066 171.583 127.799 171.665C128.749 171.77 129.1 172.247 130.111 172.023C130.421 171.954 130.452 171.756 130.741 171.756C131.188 171.756 131.381 171.969 131.719 171.594C132.092 171.179 132.703 170.985 132.883 170.355C133.128 169.498 134.025 169.047 132.696 169.579" stroke="#57B760" stroke-opacity="0.18" stroke-width="1.66333" stroke-linecap="round" stroke-linejoin="round"/>
<path d="M138.048 130.215C136.425 130.224 135.083 130.328 134.53 132.049C134.154 133.22 134.147 134.371 134.147 135.587C134.147 136.769 134.873 137.719 134.873 138.832C134.873 140.302 133.697 140.062 132.701 140.51C131.761 140.933 131.08 141.286 130.57 142.233C130.065 143.17 130.446 144.983 130.514 146.002C130.573 146.879 130.99 148.743 130.383 149.484C130.054 149.887 128.253 150.509 129.431 149.625" stroke="#57B760" stroke-opacity="0.18" stroke-width="1.66333" stroke-linecap="round" stroke-linejoin="round"/>
<path d="M151.743 146.632C153.043 147.495 154.367 148.218 155.82 148.763C156.429 148.992 157.231 149.399 157.095 148.446" stroke="#57B760" stroke-opacity="0.18" stroke-width="1.66333" stroke-linecap="round" stroke-linejoin="round"/>
<path d="M156.459 134.115C158.762 134.67 161.05 135.294 163.332 135.909C163.712 136.011 162.841 135.051 162.808 135.022" stroke="#57B760" stroke-opacity="0.18" stroke-width="1.66333" stroke-linecap="round" stroke-linejoin="round"/>
<path d="M157.094 122.234C159.479 121.887 161.857 121.457 164.229 121.034C165.322 120.84 165.784 120.983 165.167 120.057" stroke="#57B760" stroke-opacity="0.18" stroke-width="1.66333" stroke-linecap="round" stroke-linejoin="round"/>
<path d="M144.215 109.626C146.099 109.295 147.733 108.976 149.435 108.125C150.232 107.726 151 107.247 151.834 106.925C152.825 106.543 152.845 106.66 151.743 105.998" stroke="#57B760" stroke-opacity="0.18" stroke-width="1.66333" stroke-linecap="round" stroke-linejoin="round"/>
<path d="M127.798 101.463C127.523 103.388 127.614 104.541 128.393 106.286C128.813 107.226 129.168 108.414 129.376 109.43C129.447 109.779 129.487 109.979 129.723 110.241C129.812 110.339 129.487 109.171 129.431 108.991" stroke="#57B760" stroke-opacity="0.18" stroke-width="1.66333" stroke-linecap="round" stroke-linejoin="round"/>
<path d="M113.921 109.173C114.523 111.177 115.382 113.1 115.897 115.109C116.157 116.125 115.994 116.186 115.554 115.159" stroke="#57B760" stroke-opacity="0.18" stroke-width="1.66333" stroke-linecap="round" stroke-linejoin="round"/>
<path d="M108.117 123.594C110.177 125.378 111.867 127.591 113.468 129.782C113.668 130.056 113.9 130.154 114.123 130.376C114.628 130.882 113.756 129.74 113.649 129.58" stroke="#57B760" stroke-opacity="0.18" stroke-width="1.66333" stroke-linecap="round" stroke-linejoin="round"/>
<path d="M387.37 245.841C389.801 241.458 389.658 240.206 389.103 235.795C388.798 233.366 388.681 230.992 388.063 228.602C386.958 224.328 386.599 218.573 390.059 215.132C396.868 208.361 409.546 217.991 405.707 226.581C404.246 229.85 401.722 232.271 399.898 235.355C399.166 236.592 398.756 237.932 397.806 239.088C396.894 240.196 395.762 241.576 395.762 242.952C395.762 244.114 396.11 245.622 395.283 246.649C394.141 248.069 394.547 247.339 392.857 247.339C391.694 247.339 389.981 246.42 389.043 245.675C388.374 245.142 388.015 246.682 388.015 245.199C388.015 243.926 388.427 244.985 387.585 244.985" stroke="#57B760" stroke-opacity="0.18" stroke-width="1.66333" stroke-linecap="round" stroke-linejoin="round"/>
<path d="M392.749 249.907C390.448 249.225 384.078 247.701 385.553 249.586C387.331 251.86 388.092 250.721 390.275 251.203C391.391 251.45 392.479 254.876 391.243 254.948C389.477 255.051 388.307 252.689 386.509 252.689C384.873 252.689 384.99 254.831 385.971 255.59C387.267 256.592 388.757 255.515 389.629 257.076C391.007 259.543 387.243 259.142 386.174 258.562C385.098 257.978 384.074 257.066 383.281 256.541" stroke="#57B760" stroke-opacity="0.18" stroke-width="1.66333" stroke-linecap="round" stroke-linejoin="round"/>
<path d="M387.37 245.146C387.399 245.332 387.429 246.59 387.935 246.59C388.207 246.59 388.332 246.426 388.58 246.563C388.872 246.725 389.146 247.105 389.426 247.327C389.672 247.523 390.403 247.499 390.544 247.743C390.773 248.142 391.239 248.361 391.673 248.409C392.237 248.471 392.445 248.753 393.045 248.62C393.228 248.58 393.247 248.463 393.419 248.463C393.684 248.463 393.798 248.589 393.998 248.367C394.22 248.123 394.582 248.008 394.689 247.636C394.834 247.131 395.366 246.865 394.578 247.179" stroke="#57B760" stroke-opacity="0.18" stroke-width="1.66333" stroke-linecap="round" stroke-linejoin="round"/>
<path d="M397.752 223.96C396.789 223.965 395.994 224.026 395.666 225.041C395.443 225.732 395.439 226.411 395.439 227.128C395.439 227.825 395.869 228.386 395.869 229.042C395.869 229.91 395.171 229.768 394.581 230.032C394.023 230.281 393.619 230.49 393.317 231.048C393.017 231.601 393.244 232.67 393.284 233.272C393.319 233.789 393.566 234.888 393.206 235.325C393.011 235.563 391.943 235.93 392.641 235.409" stroke="#57B760" stroke-opacity="0.18" stroke-width="1.66333" stroke-linecap="round" stroke-linejoin="round"/>
<path d="M405.875 233.643C406.645 234.152 407.431 234.579 408.292 234.9C408.654 235.035 409.129 235.275 409.048 234.713" stroke="#57B760" stroke-opacity="0.18" stroke-width="1.66333" stroke-linecap="round" stroke-linejoin="round"/>
<path d="M408.672 226.26C410.038 226.587 411.394 226.956 412.748 227.318C412.973 227.378 412.456 226.812 412.437 226.795" stroke="#57B760" stroke-opacity="0.18" stroke-width="1.66333" stroke-linecap="round" stroke-linejoin="round"/>
<path d="M409.048 219.252C410.463 219.047 411.873 218.793 413.28 218.544C413.928 218.429 414.202 218.514 413.836 217.968" stroke="#57B760" stroke-opacity="0.18" stroke-width="1.66333" stroke-linecap="round" stroke-linejoin="round"/>
<path d="M401.41 211.815C402.527 211.62 403.496 211.431 404.506 210.929C404.979 210.694 405.434 210.412 405.928 210.222C406.516 209.996 406.528 210.065 405.875 209.675" stroke="#57B760" stroke-opacity="0.18" stroke-width="1.66333" stroke-linecap="round" stroke-linejoin="round"/>
<path d="M391.673 207C391.51 208.135 391.564 208.816 392.026 209.844C392.275 210.399 392.485 211.1 392.609 211.699C392.651 211.905 392.675 212.023 392.815 212.178C392.867 212.236 392.675 211.547 392.641 211.441" stroke="#57B760" stroke-opacity="0.18" stroke-width="1.66333" stroke-linecap="round" stroke-linejoin="round"/>
<path d="M383.443 211.547C383.8 212.73 384.309 213.864 384.614 215.049C384.769 215.648 384.672 215.684 384.411 215.078" stroke="#57B760" stroke-opacity="0.18" stroke-width="1.66333" stroke-linecap="round" stroke-linejoin="round"/>
<path d="M380 220.054C381.222 221.106 382.225 222.412 383.174 223.704C383.293 223.866 383.43 223.923 383.562 224.055C383.862 224.353 383.345 223.679 383.281 223.585" stroke="#57B760" stroke-opacity="0.18" stroke-width="1.66333" stroke-linecap="round" stroke-linejoin="round"/>
<path d="M36.5439 291.273C37.4384 290.136 39.1515 288.032 36.7504 287.66C36.2072 287.575 35.6999 287.256 35.1669 287.498C33.5253 288.242 32 289.88 32 291.827C32 294.938 35.4118 295.612 37.8902 295.572C42.0717 295.504 43.3439 291.43 44.8207 288.129C46.3126 284.796 47.9697 281.516 49.5176 278.207C51.269 274.462 54.1415 271.478 55.9585 267.768C56.7377 266.176 57.7551 264.775 58.7583 263.322C60.3145 261.069 61.4241 258.795 62.5372 256.296C63.4504 254.246 64.463 252.374 65.5817 250.433C66.0341 249.649 65.8641 248.446 66.7292 249.285C67.3859 249.922 68.4308 250.341 69.3147 250.503C73.1792 251.21 76.7329 251.959 80.7126 251.643C84.7376 251.323 88.7604 250.746 92.7225 249.979C94.0694 249.718 93.4953 250.032 92.8602 250.849C91.7829 252.236 90.8631 253.705 89.8309 255.11C88.4849 256.942 88.0112 259.148 87.2148 261.242C86.3393 263.544 85.2974 265.743 84.4609 268.083C82.8444 272.606 80.4864 276.73 77.5686 280.526C75.8777 282.725 73.789 286.567 70.6228 286.411C65.723 286.171 69.0316 276.526 71.3725 274.64C72.6326 273.624 74.0108 274.717 74.1646 276.08C74.3759 277.953 73.7335 280.519 71.9156 281.435C69.9976 282.4 68.5272 282.285 70.0032 279.794C70.8962 278.287 71.4273 279.945 71.7932 279.208" stroke="#57B760" stroke-opacity="0.18" stroke-width="1.66333" stroke-linecap="round" stroke-linejoin="round"/>
<path d="M119.249 241.768C119.888 240.914 121.113 239.332 119.396 239.053C119.008 238.99 118.645 238.75 118.264 238.931C117.09 239.49 116 240.721 116 242.185C116 244.523 118.439 245.029 120.211 244.999C123.201 244.948 124.11 241.886 125.166 239.406C126.233 236.901 127.417 234.436 128.524 231.949C129.776 229.134 131.83 226.892 133.129 224.104C133.686 222.908 134.413 221.855 135.131 220.763C136.243 219.07 137.037 217.361 137.832 215.483C138.485 213.942 139.209 212.535 140.009 211.077C140.332 210.487 140.211 209.584 140.829 210.214C141.299 210.693 142.046 211.008 142.678 211.129C145.441 211.661 147.982 212.224 150.827 211.986C153.704 211.746 156.58 211.312 159.413 210.735C160.376 210.539 159.966 210.775 159.512 211.39C158.741 212.432 158.084 213.536 157.346 214.591C156.384 215.968 156.045 217.626 155.475 219.2C154.85 220.93 154.105 222.583 153.507 224.341C152.351 227.74 150.665 230.839 148.579 233.692C147.37 235.345 145.877 238.232 143.613 238.115C140.11 237.934 142.476 230.686 144.149 229.268C145.05 228.505 146.035 229.327 146.145 230.351C146.296 231.758 145.837 233.687 144.537 234.375C143.166 235.101 142.115 235.013 143.17 233.142C143.809 232.009 144.188 233.255 144.45 232.701" stroke="#57B760" stroke-opacity="0.18" stroke-width="1.66333" stroke-linecap="round" stroke-linejoin="round"/>
<path d="M345.027 153.507C345.623 152.848 346.764 151.628 345.165 151.412C344.803 151.363 344.465 151.178 344.11 151.318C343.016 151.75 342 152.699 342 153.828C342 155.632 344.273 156.022 345.924 155.999C348.71 155.96 349.557 153.598 350.541 151.685C351.535 149.752 352.639 147.851 353.67 145.932C354.837 143.761 356.751 142.031 357.961 139.88C358.48 138.958 359.158 138.145 359.826 137.303C360.863 135.997 361.602 134.678 362.344 133.23C362.952 132.041 363.627 130.956 364.372 129.831C364.673 129.376 364.56 128.679 365.136 129.165C365.574 129.535 366.27 129.777 366.859 129.871C369.433 130.281 371.801 130.716 374.452 130.532C377.134 130.347 379.814 130.012 382.453 129.567C383.35 129.416 382.968 129.598 382.545 130.072C381.827 130.876 381.214 131.728 380.527 132.542C379.63 133.604 379.314 134.883 378.784 136.097C378.201 137.432 377.507 138.707 376.949 140.063C375.872 142.685 374.301 145.076 372.358 147.276C371.231 148.552 369.84 150.779 367.73 150.689C364.466 150.549 366.67 144.957 368.23 143.864C369.069 143.275 369.987 143.909 370.09 144.699C370.231 145.785 369.803 147.273 368.592 147.803C367.314 148.363 366.334 148.296 367.318 146.852C367.913 145.978 368.266 146.94 368.51 146.513" stroke="#57B760" stroke-opacity="0.18" stroke-width="1.66333" stroke-linecap="round" stroke-linejoin="round"/>
<path d="M297.765 232.953C298.507 232.147 299.926 230.656 297.937 230.393C297.486 230.333 297.066 230.107 296.624 230.278C295.264 230.805 294 231.966 294 233.346C294 235.55 296.827 236.027 298.881 235.999C302.346 235.951 303.4 233.064 304.624 230.726C305.861 228.364 307.234 226.04 308.517 223.695C309.968 221.041 312.348 218.927 313.854 216.298C314.5 215.17 315.343 214.178 316.174 213.148C317.464 211.551 318.383 209.94 319.306 208.17C320.062 206.717 320.902 205.39 321.829 204.016C322.204 203.46 322.063 202.608 322.78 203.202C323.324 203.653 324.19 203.95 324.922 204.065C328.125 204.566 331.069 205.097 334.367 204.873C337.703 204.646 341.036 204.237 344.32 203.693C345.436 203.509 344.96 203.731 344.434 204.31C343.541 205.293 342.779 206.334 341.924 207.329C340.808 208.627 340.416 210.19 339.756 211.674C339.03 213.306 338.167 214.864 337.474 216.522C336.134 219.726 334.18 222.648 331.762 225.338C330.361 226.896 328.63 229.618 326.006 229.508C321.946 229.338 324.688 222.504 326.627 221.167C327.672 220.448 328.814 221.222 328.941 222.188C329.116 223.515 328.584 225.333 327.077 225.982C325.488 226.666 324.27 226.584 325.493 224.819C326.233 223.751 326.673 224.927 326.976 224.404" stroke="#57B760" stroke-opacity="0.18" stroke-width="1.66333" stroke-linecap="round" stroke-linejoin="round"/>
<path d="M616.544 205.273C617.438 204.136 619.152 202.032 616.75 201.66C616.207 201.575 615.7 201.256 615.167 201.498C613.525 202.242 612 203.88 612 205.827C612 208.938 615.412 209.612 617.89 209.572C622.072 209.504 623.344 205.43 624.821 202.129C626.313 198.796 627.97 195.516 629.518 192.207C631.269 188.462 634.142 185.478 635.959 181.768C636.738 180.176 637.755 178.775 638.758 177.322C640.314 175.069 641.424 172.795 642.537 170.296C643.45 168.246 644.463 166.374 645.582 164.433C646.034 163.649 645.864 162.446 646.729 163.285C647.386 163.922 648.431 164.341 649.315 164.503C653.179 165.21 656.733 165.959 660.713 165.643C664.738 165.323 668.76 164.746 672.722 163.979C674.069 163.718 673.495 164.032 672.86 164.849C671.783 166.236 670.863 167.705 669.831 169.11C668.485 170.942 668.011 173.148 667.215 175.242C666.339 177.544 665.297 179.743 664.461 182.083C662.844 186.606 660.486 190.73 657.569 194.526C655.878 196.725 653.789 200.567 650.623 200.411C645.723 200.171 649.032 190.526 651.372 188.64C652.633 187.624 654.011 188.717 654.165 190.08C654.376 191.953 653.733 194.519 651.916 195.435C649.998 196.4 648.527 196.285 650.003 193.794C650.896 192.287 651.427 193.945 651.793 193.208" stroke="#57B760" stroke-opacity="0.18" stroke-width="1.66333" stroke-linecap="round" stroke-linejoin="round"/>
<path d="M290.957 159.583C291.165 156.316 290.988 154.848 287.91 153.735C286.759 153.319 285.038 153.54 284.173 154.43C282.409 156.245 282.972 158.323 283.685 160.486C285.714 166.647 295.667 166.807 298.651 161.089C300.101 158.309 300.843 154.868 301.866 151.903C303.135 148.224 305.201 144.82 306.412 141.112C307.661 137.286 308.537 133.375 309.896 129.584C310.518 127.851 311.04 124.114 312.489 122.833C315.666 120.027 318.468 124.988 318.676 127.669C318.876 130.257 319.593 133.077 319.593 135.574C319.593 136.517 319.212 137.436 318.836 138.276C318.528 138.963 317.147 138.63 317.026 137.967C316.671 136.026 319.194 133.108 315.351 133.533" stroke="#57B760" stroke-opacity="0.18" stroke-width="1.66333" stroke-linecap="round" stroke-linejoin="round"/>
<path d="M156.957 272.583C157.165 269.316 156.988 267.848 153.91 266.735C152.759 266.319 151.038 266.54 150.173 267.43C148.409 269.245 148.972 271.323 149.685 273.486C151.714 279.647 161.667 279.807 164.651 274.089C166.101 271.309 166.843 267.868 167.866 264.903C169.135 261.224 171.201 257.82 172.412 254.112C173.661 250.286 174.537 246.375 175.896 242.584C176.518 240.851 177.04 237.114 178.489 235.833C181.666 233.027 184.468 237.988 184.676 240.669C184.876 243.257 185.593 246.077 185.593 248.574C185.593 249.517 185.212 250.436 184.836 251.276C184.528 251.963 183.147 251.63 183.026 250.967C182.671 249.026 185.194 246.108 181.351 246.533" stroke="#57B760" stroke-opacity="0.18" stroke-width="1.66333" stroke-linecap="round" stroke-linejoin="round"/>
<path d="M923.957 300.583C924.165 297.316 923.988 295.848 920.91 294.735C919.759 294.319 918.038 294.54 917.173 295.43C915.409 297.245 915.972 299.323 916.685 301.486C918.714 307.647 928.667 307.807 931.651 302.089C933.101 299.309 933.843 295.868 934.866 292.903C936.135 289.224 938.201 285.82 939.412 282.112C940.661 278.286 941.537 274.375 942.896 270.584C943.518 268.851 944.04 265.114 945.489 263.833C948.666 261.027 951.468 265.988 951.676 268.669C951.876 271.257 952.593 274.077 952.593 276.574C952.593 277.517 952.212 278.436 951.836 279.276C951.528 279.963 950.147 279.63 950.026 278.967C949.671 277.026 952.194 274.108 948.351 274.533" stroke="#57B760" stroke-opacity="0.18" stroke-width="1.66333" stroke-linecap="round" stroke-linejoin="round"/>
<path d="M450.544 174.273C451.438 173.136 453.152 171.032 450.75 170.66C450.207 170.575 449.7 170.256 449.167 170.498C447.525 171.242 446 172.88 446 174.827C446 177.938 449.412 178.612 451.89 178.572C456.072 178.504 457.344 174.43 458.821 171.129C460.313 167.796 461.97 164.516 463.518 161.207C465.269 157.462 468.142 154.478 469.959 150.768C470.738 149.176 471.755 147.775 472.758 146.322C474.314 144.069 475.424 141.795 476.537 139.296C477.45 137.246 478.463 135.374 479.582 133.433C480.034 132.649 479.864 131.446 480.729 132.285C481.386 132.922 482.431 133.341 483.315 133.503C487.179 134.21 490.733 134.959 494.713 134.643C498.738 134.323 502.76 133.746 506.722 132.979C508.069 132.718 507.495 133.032 506.86 133.849C505.783 135.236 504.863 136.705 503.831 138.11C502.485 139.942 502.011 142.148 501.215 144.242C500.339 146.544 499.297 148.743 498.461 151.083C496.844 155.606 494.486 159.73 491.569 163.526C489.878 165.725 487.789 169.567 484.623 169.411C479.723 169.171 483.032 159.526 485.372 157.64C486.633 156.624 488.011 157.717 488.165 159.08C488.376 160.953 487.733 163.519 485.916 164.435C483.998 165.4 482.527 165.285 484.003 162.794C484.896 161.287 485.427 162.945 485.793 162.208" stroke="#57B760" stroke-opacity="0.18" stroke-width="1.66333" stroke-linecap="round" stroke-linejoin="round"/>
<path d="M526.917 263.796C527.125 260.529 526.948 259.061 523.87 257.949C522.719 257.533 520.998 257.753 520.133 258.643C518.369 260.458 518.932 262.536 519.645 264.7C521.674 270.861 531.627 271.02 534.611 265.302C536.061 262.523 536.803 259.081 537.826 256.117C539.095 252.438 541.161 249.034 542.372 245.325C543.621 241.499 544.497 237.588 545.856 233.798C546.478 232.065 547 228.327 548.449 227.047C551.626 224.24 554.428 229.202 554.636 231.882C554.836 234.471 555.553 237.291 555.553 239.787C555.553 240.73 555.171 241.649 554.796 242.489C554.488 243.177 553.107 242.844 552.986 242.18C552.631 240.239 555.154 237.322 551.311 237.746" stroke="#57B760" stroke-opacity="0.18" stroke-width="1.66333" stroke-linecap="round" stroke-linejoin="round"/>
<path d="M895.957 164.583C896.165 161.316 895.988 159.848 892.91 158.735C891.759 158.319 890.038 158.54 889.173 159.43C887.409 161.245 887.972 163.323 888.685 165.486C890.714 171.647 900.667 171.807 903.651 166.089C905.101 163.309 905.843 159.868 906.866 156.903C908.135 153.224 910.201 149.82 911.412 146.112C912.661 142.286 913.537 138.375 914.896 134.584C915.518 132.851 916.04 129.114 917.489 127.833C920.666 125.027 923.468 129.988 923.676 132.669C923.876 135.257 924.593 138.077 924.593 140.574C924.593 141.517 924.212 142.436 923.836 143.276C923.528 143.963 922.147 143.63 922.026 142.967C921.671 141.026 924.194 138.108 920.351 138.533" stroke="#57B760" stroke-opacity="0.18" stroke-width="1.66333" stroke-linecap="round" stroke-linejoin="round"/>
<path d="M669.702 259.682C669.825 257.798 669.72 256.951 667.901 256.309C667.221 256.069 666.204 256.196 665.693 256.709C664.651 257.757 664.984 258.956 665.405 260.204C666.603 263.758 672.485 263.85 674.248 260.551C675.105 258.948 675.544 256.962 676.148 255.252C676.898 253.129 678.119 251.166 678.834 249.026C679.572 246.819 680.09 244.562 680.893 242.376C681.261 241.376 681.569 239.219 682.425 238.481C684.303 236.862 685.959 239.724 686.081 241.27C686.2 242.764 686.623 244.391 686.623 245.831C686.623 246.375 686.398 246.905 686.176 247.39C685.994 247.787 685.178 247.594 685.106 247.211C684.896 246.092 686.388 244.409 684.116 244.654" stroke="#57B760" stroke-opacity="0.18" stroke-width="1.66333" stroke-linecap="round" stroke-linejoin="round"/>
<path d="M302.16 84.3361C303.796 84.2962 305.742 84.6749 306.317 82.9504" stroke="#57B760" stroke-opacity="0.18" stroke-width="1.66333" stroke-linecap="round" stroke-linejoin="round"/>
<path d="M223.761 129.783C217.118 131.058 212.289 132.976 208.078 138.389C205.41 141.82 205.995 147.219 207.744 150.856C210.625 156.849 217.706 160.232 224.095 160.526C231.539 160.868 241.886 158.681 243.412 149.804C244.229 145.046 239.683 140.547 237.555 136.644C235.823 133.469 233.215 129.19 229.57 127.847C228.082 127.298 224.628 127.489 223.546 128.97C223.062 129.632 222.439 130.331 222.087 131.074C221.802 131.676 222.108 129.541 222.04 128.922" stroke="#57B760" stroke-opacity="0.18" stroke-width="1.66333" stroke-linecap="round" stroke-linejoin="round"/>
<path d="M226.558 146.135C224.765 147.056 221.856 147.667 223.426 149.685C223.784 150.145 224.294 150.12 224.729 149.685C225.1 149.313 226.974 147.361 225.589 146.9C222.766 145.959 223.798 151.592 225.816 149.099C226.9 147.76 225.383 146.443 224.023 147.258C222.403 148.23 223.685 149.928 224.956 148.454C225.913 147.343 225.149 146.492 224.107 147.533C223.174 148.466 224.122 149.954 225.039 148.693C225.981 147.399 224.907 146.303 223.772 147.438C222.459 148.751 223.881 148.613 224.812 147.748C225.752 146.876 224.086 147.005 223.545 147.689C222.29 149.277 224.257 149.051 224.573 147.689C225.039 145.688 222.974 150.285 223.976 146.78" stroke="#57B760" stroke-opacity="0.18" stroke-width="1.66333" stroke-linecap="round" stroke-linejoin="round"/>
<path d="M219.242 139.465C221.154 141.987 223.112 144.378 224.717 146.9C225.162 147.599 224.807 148.3 225.052 148.286C225.957 148.236 226.884 148.071 227.849 148.071C230.056 148.071 231.794 146.995 233.921 146.995C236.497 146.995 240.281 146.327 236.025 144.198" stroke="#57B760" stroke-opacity="0.18" stroke-width="1.66333" stroke-linecap="round" stroke-linejoin="round"/>
<path d="M217.091 129.568C216.689 127.534 214.725 122.603 218.382 123.125C219.694 123.313 220.574 124.67 221.346 125.528C223.355 127.759 223.14 130.452 219.888 130.644C219.036 130.694 217.837 132.383 216.876 131.182C215.788 129.821 216.899 129.913 217.091 128.277C217.217 127.207 216.519 127.296 216.218 126.245C215.988 125.439 216.466 124.557 216.661 123.974" stroke="#57B760" stroke-opacity="0.18" stroke-width="1.66333" stroke-linecap="round" stroke-linejoin="round"/>
<path d="M218.382 127.201C218.363 127.715 217.57 132.346 219.254 131.588C219.818 131.334 220.305 130.965 220.533 130.381C220.754 129.814 220.519 129.476 220.27 128.922C219.629 127.496 217.767 125.28 218.334 128.492C218.692 130.519 220.955 130.045 221.131 128.11C221.265 126.631 219.401 124.651 218.214 126.341C217.375 127.535 218.87 130.17 219.744 128.325C220.188 127.388 219.127 125.005 217.999 126.173C216.843 127.371 218.581 129.897 219.72 128.875C220.848 127.864 220.081 124.782 218.86 125.958C217.742 127.034 219.419 129.175 220.27 127.536C221.22 125.707 219.128 124.329 218.477 126.245C217.896 127.955 219.708 129.795 220.127 127.464C220.446 125.69 217.186 124.747 217.186 126.866C217.186 128.819 218.932 128.62 218.932 126.843C218.932 124.99 217.066 125.407 217.844 126.962C218.621 128.517 219.663 125.757 218.788 124.882C217.766 123.861 216.414 125.44 217.617 126.424C218.437 127.095 219.557 124.312 218.179 123.795C216.988 123.348 217.646 125.779 218.059 125.229C218.699 124.376 217.718 123.805 218.394 123.974C218.989 124.123 220.436 124.441 220.844 124.966C221.166 125.379 222.47 127.68 222.47 128.277C222.47 130.105 219.674 131.09 218.071 130.632C216.92 130.303 216.58 131.116 216.983 130.847C217.962 130.194 218.167 128.492 218.167 129.138" stroke="#57B760" stroke-opacity="0.18" stroke-width="1.66333" stroke-linecap="round" stroke-linejoin="round"/>
<path d="M218.166 160.335C217.059 162.685 216.075 165.047 214.772 167.268C214.478 167.768 213.928 168.789 213.863 169.372C213.689 170.941 215.266 165.628 215.585 164.853" stroke="#57B760" stroke-opacity="0.18" stroke-width="1.66333" stroke-linecap="round" stroke-linejoin="round"/>
<path d="M239.897 155.817C242.622 159.258 245.627 161.711 247.75 165.487C247.96 165.859 248.322 166.154 248.611 166.443C249.578 167.41 246.817 164.38 245.922 163.347" stroke="#57B760" stroke-opacity="0.18" stroke-width="1.66333" stroke-linecap="round" stroke-linejoin="round"/>
<path d="M728.507 228.696C721.865 229.972 717.035 231.889 712.825 237.303C710.157 240.733 710.742 246.133 712.49 249.77C715.371 255.762 722.453 259.146 728.842 259.44C736.285 259.782 746.632 257.595 748.158 248.718C748.976 243.959 744.43 239.46 742.301 235.557C740.569 232.383 737.962 228.103 734.317 226.76C732.829 226.212 729.375 226.402 728.292 227.884C727.809 228.545 727.186 229.244 726.834 229.987C726.549 230.59 726.855 228.455 726.786 227.836" stroke="#57B760" stroke-opacity="0.18" stroke-width="1.66333" stroke-linecap="round" stroke-linejoin="round"/>
<path d="M731.304 245.048C729.512 245.969 726.603 246.58 728.173 248.598C728.53 249.058 729.041 249.033 729.475 248.598C729.847 248.227 731.721 246.275 730.336 245.813C727.513 244.872 728.545 250.505 730.563 248.013C731.647 246.674 730.13 245.356 728.77 246.172C727.15 247.144 728.432 248.841 729.703 247.367C730.66 246.256 729.895 245.405 728.854 246.447C727.921 247.38 728.869 248.868 729.786 247.606C730.727 246.312 729.654 245.216 728.519 246.351C727.205 247.665 728.627 247.527 729.559 246.662C730.498 245.79 728.833 245.918 728.292 246.602C727.036 248.19 729.003 247.964 729.32 246.602C729.785 244.601 727.721 249.198 728.722 245.694" stroke="#57B760" stroke-opacity="0.18" stroke-width="1.66333" stroke-linecap="round" stroke-linejoin="round"/>
<path d="M723.989 238.378C725.9 240.9 727.859 243.292 729.464 245.813C729.908 246.512 729.553 247.213 729.798 247.2C730.704 247.149 731.631 246.985 732.595 246.985C734.802 246.985 736.54 245.909 738.667 245.909C741.243 245.909 745.028 245.24 740.771 243.112" stroke="#57B760" stroke-opacity="0.18" stroke-width="1.66333" stroke-linecap="round" stroke-linejoin="round"/>
<path d="M721.837 228.481C721.436 226.447 719.472 221.516 723.128 222.039C724.44 222.226 725.321 223.583 726.093 224.441C728.101 226.672 727.886 229.366 724.634 229.557C723.783 229.607 722.583 231.296 721.622 230.095C720.534 228.735 721.645 228.826 721.837 227.19C721.963 226.12 721.265 226.209 720.965 225.158C720.735 224.352 721.213 223.47 721.407 222.887" stroke="#57B760" stroke-opacity="0.18" stroke-width="1.66333" stroke-linecap="round" stroke-linejoin="round"/>
<path d="M723.128 226.114C723.109 226.628 722.317 231.259 724.001 230.501C724.565 230.247 725.052 229.879 725.28 229.294C725.501 228.728 725.266 228.389 725.017 227.836C724.375 226.41 722.514 224.193 723.08 227.405C723.438 229.432 725.702 228.958 725.877 227.023C726.012 225.545 724.148 223.565 722.961 225.254C722.121 226.449 723.617 229.084 724.491 227.238C724.935 226.301 723.873 223.919 722.746 225.087C721.59 226.284 723.327 228.81 724.467 227.788C725.594 226.777 724.828 223.695 723.606 224.871C722.489 225.947 724.166 228.089 725.017 226.449C725.966 224.62 723.875 223.242 723.224 225.158C722.643 226.869 724.454 228.708 724.873 226.377C725.192 224.603 721.933 223.66 721.933 225.78C721.933 227.733 723.678 227.533 723.678 225.756C723.678 223.904 721.813 224.321 722.59 225.875C723.368 227.43 724.41 224.671 723.535 223.796C722.513 222.774 721.161 224.353 722.363 225.338C723.183 226.008 724.304 223.225 722.925 222.708C721.734 222.261 722.393 224.692 722.806 224.142C723.445 223.289 722.465 222.718 723.14 222.887C723.736 223.036 725.182 223.354 725.591 223.879C725.912 224.293 727.216 226.593 727.216 227.19C727.216 229.018 724.421 230.003 722.818 229.545C721.667 229.216 721.326 230.029 721.73 229.76C722.709 229.107 722.913 227.405 722.913 228.051" stroke="#57B760" stroke-opacity="0.18" stroke-width="1.66333" stroke-linecap="round" stroke-linejoin="round"/>
<path d="M722.913 259.248C721.805 261.599 720.822 263.96 719.518 266.181C719.225 266.681 718.675 267.702 718.61 268.285C718.436 269.855 720.012 264.541 720.331 263.767" stroke="#57B760" stroke-opacity="0.18" stroke-width="1.66333" stroke-linecap="round" stroke-linejoin="round"/>
<path d="M744.644 254.73C747.369 258.171 750.373 260.624 752.497 264.4C752.706 264.772 753.069 265.067 753.358 265.356C754.324 266.323 751.564 263.294 750.668 262.261" stroke="#57B760" stroke-opacity="0.18" stroke-width="1.66333" stroke-linecap="round" stroke-linejoin="round"/>
<path d="M414.507 131.696C407.865 132.971 403.035 134.889 398.825 140.303C396.157 143.733 396.742 149.133 398.49 152.77C401.371 158.762 408.453 162.146 414.842 162.44C422.285 162.782 432.632 160.595 434.158 151.718C434.976 146.959 430.43 142.46 428.301 138.557C426.569 135.383 423.962 131.103 420.317 129.76C418.829 129.212 415.375 129.402 414.292 130.883C413.809 131.545 413.186 132.244 412.834 132.987C412.549 133.59 412.855 131.455 412.786 130.836" stroke="#57B760" stroke-opacity="0.18" stroke-width="1.66333" stroke-linecap="round" stroke-linejoin="round"/>
<path d="M417.304 148.048C415.512 148.969 412.603 149.58 414.173 151.598C414.53 152.058 415.041 152.033 415.476 151.598C415.847 151.227 417.721 149.275 416.336 148.813C413.513 147.872 414.545 153.505 416.563 151.013C417.647 149.674 416.13 148.356 414.77 149.172C413.15 150.144 414.432 151.841 415.703 150.367C416.66 149.256 415.896 148.405 414.854 149.447C413.921 150.38 414.869 151.868 415.786 150.606C416.727 149.312 415.654 148.216 414.519 149.351C413.205 150.665 414.628 150.527 415.559 149.662C416.498 148.79 414.833 148.918 414.292 149.602C413.037 151.19 415.003 150.964 415.32 149.602C415.786 147.601 413.721 152.198 414.722 148.694" stroke="#57B760" stroke-opacity="0.18" stroke-width="1.66333" stroke-linecap="round" stroke-linejoin="round"/>
<path d="M409.989 141.378C411.9 143.9 413.859 146.292 415.464 148.813C415.908 149.512 415.553 150.213 415.798 150.2C416.704 150.149 417.631 149.985 418.595 149.985C420.802 149.985 422.54 148.909 424.667 148.909C427.243 148.909 431.028 148.24 426.771 146.112" stroke="#57B760" stroke-opacity="0.18" stroke-width="1.66333" stroke-linecap="round" stroke-linejoin="round"/>
<path d="M407.837 131.481C407.436 129.447 405.472 124.516 409.128 125.039C410.441 125.226 411.321 126.583 412.093 127.441C414.101 129.672 413.886 132.366 410.634 132.557C409.783 132.607 408.583 134.296 407.622 133.095C406.534 131.735 407.645 131.826 407.837 130.19C407.963 129.12 407.265 129.209 406.965 128.158C406.735 127.352 407.213 126.47 407.407 125.887" stroke="#57B760" stroke-opacity="0.18" stroke-width="1.66333" stroke-linecap="round" stroke-linejoin="round"/>
<path d="M409.128 129.114C409.109 129.628 408.317 134.259 410.001 133.501C410.565 133.247 411.052 132.879 411.28 132.294C411.501 131.728 411.266 131.389 411.017 130.836C410.375 129.41 408.514 127.193 409.081 130.405C409.438 132.432 411.702 131.958 411.878 130.023C412.012 128.545 410.148 126.565 408.961 128.254C408.121 129.449 409.617 132.084 410.491 130.238C410.935 129.301 409.874 126.919 408.746 128.087C407.59 129.284 409.327 131.81 410.467 130.788C411.594 129.777 410.828 126.695 409.607 127.871C408.489 128.947 410.166 131.089 411.017 129.449C411.967 127.62 409.875 126.242 409.224 128.158C408.643 129.869 410.455 131.708 410.874 129.377C411.193 127.603 407.933 126.66 407.933 128.78C407.933 130.733 409.678 130.533 409.678 128.756C409.678 126.904 407.813 127.321 408.591 128.875C409.368 130.43 410.41 127.671 409.535 126.796C408.513 125.774 407.161 127.353 408.363 128.338C409.183 129.008 410.304 126.225 408.925 125.708C407.734 125.261 408.393 127.692 408.806 127.142C409.445 126.289 408.465 125.718 409.14 125.887C409.736 126.036 411.182 126.354 411.591 126.879C411.912 127.293 413.216 129.593 413.216 130.19C413.216 132.018 410.421 133.003 408.818 132.545C407.667 132.216 407.326 133.029 407.73 132.76C408.709 132.107 408.913 130.405 408.913 131.051" stroke="#57B760" stroke-opacity="0.18" stroke-width="1.66333" stroke-linecap="round" stroke-linejoin="round"/>
<path d="M408.913 162.248C407.805 164.599 406.822 166.96 405.519 169.181C405.225 169.681 404.675 170.702 404.61 171.285C404.436 172.855 406.012 167.541 406.331 166.767" stroke="#57B760" stroke-opacity="0.18" stroke-width="1.66333" stroke-linecap="round" stroke-linejoin="round"/>
<path d="M430.644 157.73C433.369 161.171 436.373 163.624 438.497 167.4C438.706 167.772 439.069 168.067 439.358 168.356C440.324 169.323 437.564 166.294 436.668 165.261" stroke="#57B760" stroke-opacity="0.18" stroke-width="1.66333" stroke-linecap="round" stroke-linejoin="round"/>
<path d="M23.5098 112.116C29.8376 112.383 36.7082 111.995 43.0102 111.218C46.3823 110.802 49.7836 110.714 53.1171 110.201C53.5869 110.128 55.0859 109.411 55.3235 110.029C55.6984 111.004 55.7777 112.397 55.733 113.424C55.6032 116.41 55.9711 119.668 56.6182 122.58C57.1315 124.89 57.5166 126.815 57.5166 129.186C57.5166 130.483 58.207 132.615 57.4109 133.638C55.1916 136.492 50.3238 137.657 46.9473 138.513C41.9858 139.771 37.0785 141.077 31.9521 141.354C28.7722 141.526 25.7125 140.891 22.5718 140.891C19.6788 140.891 19.954 140.832 18.9386 138.091C17.9385 135.39 17.8024 132.959 17.8024 130.058C17.8024 128.548 17.138 126.895 16.7323 125.434C16.4249 124.327 16.9177 122.973 17.0758 121.867C17.2415 120.706 18.9814 118.044 18.3969 116.992C17.824 115.96 17.5202 114.195 18.463 113.253C19.2328 112.483 30.5696 111.555 20.1805 113.781" stroke="#57B760" stroke-opacity="0.18" stroke-width="1.66333" stroke-linecap="round" stroke-linejoin="round"/>
<path d="M18.2781 114.97C19.5979 116.744 20.6441 118.845 21.9773 120.559C22.4204 121.128 23.4804 121.622 23.7477 122.223C24.4714 123.852 28.638 125.282 30.1686 126.266C31.8962 127.377 35.4511 132.28 37.8974 129.833C42.4959 125.235 47.2293 120.739 51.8092 116.159C52.6746 115.294 52.9744 114.148 53.7646 113.358C56.1698 110.953 52.1662 111.165 50.858 111.165" stroke="#57B760" stroke-opacity="0.18" stroke-width="1.66333" stroke-linecap="round" stroke-linejoin="round"/>
<path d="M620.327 256.922C625.229 257.142 630.552 256.822 635.434 256.183C638.046 255.841 640.681 255.768 643.264 255.346C643.628 255.287 644.789 254.697 644.973 255.205C645.264 256.007 645.325 257.153 645.29 257.998C645.19 260.455 645.475 263.135 645.976 265.531C646.374 267.431 646.672 269.015 646.672 270.965C646.672 272.032 647.207 273.786 646.59 274.628C644.871 276.976 641.1 277.935 638.484 278.639C634.64 279.674 630.839 280.748 626.867 280.976C624.404 281.117 622.034 280.595 619.6 280.595C617.359 280.595 617.572 280.546 616.786 278.291C616.011 276.07 615.906 274.069 615.906 271.683C615.906 270.44 615.391 269.08 615.077 267.878C614.839 266.968 615.22 265.854 615.343 264.944C615.471 263.989 616.819 261.798 616.366 260.933C615.922 260.085 615.687 258.633 616.417 257.857C617.014 257.224 625.796 256.46 617.748 258.292" stroke="#57B760" stroke-opacity="0.18" stroke-width="1.66333" stroke-linecap="round" stroke-linejoin="round"/>
<path d="M616.274 259.27C617.297 260.729 618.107 262.457 619.14 263.868C619.483 264.336 620.304 264.742 620.511 265.237C621.072 266.577 624.3 267.754 625.486 268.563C626.824 269.477 629.578 273.51 631.473 271.498C635.036 267.715 638.703 264.016 642.251 260.248C642.921 259.536 643.153 258.594 643.765 257.944C645.629 255.965 642.527 256.14 641.514 256.14" stroke="#57B760" stroke-opacity="0.18" stroke-width="1.66333" stroke-linecap="round" stroke-linejoin="round"/>
<path d="M550.876 139.336C557.204 139.603 564.075 139.215 570.377 138.438C573.749 138.022 577.15 137.934 580.484 137.421C580.954 137.348 582.453 136.631 582.69 137.249C583.065 138.224 583.144 139.617 583.1 140.644C582.97 143.63 583.338 146.888 583.985 149.8C584.498 152.11 584.883 154.035 584.883 156.406C584.883 157.703 585.574 159.835 584.778 160.858C582.558 163.712 577.69 164.877 574.314 165.733C569.352 166.991 564.445 168.297 559.319 168.574C556.139 168.746 553.079 168.111 549.938 168.111C547.045 168.111 547.321 168.052 546.305 165.311C545.305 162.61 545.169 160.179 545.169 157.278C545.169 155.768 544.505 154.115 544.099 152.654C543.792 151.547 544.284 150.193 544.442 149.087C544.608 147.926 546.348 145.264 545.764 144.212C545.191 143.18 544.887 141.415 545.83 140.473C546.599 139.703 557.936 138.775 547.547 141.001" stroke="#57B760" stroke-opacity="0.18" stroke-width="1.66333" stroke-linecap="round" stroke-linejoin="round"/>
<path d="M545.645 142.19C546.964 143.964 548.011 146.065 549.344 147.779C549.787 148.348 550.847 148.842 551.114 149.443C551.838 151.072 556.005 152.502 557.535 153.486C559.263 154.597 562.818 159.5 565.264 157.053C569.862 152.455 574.596 147.959 579.176 143.379C580.041 142.514 580.341 141.368 581.131 140.578C583.536 138.173 579.533 138.385 578.225 138.385" stroke="#57B760" stroke-opacity="0.18" stroke-width="1.66333" stroke-linecap="round" stroke-linejoin="round"/>
<path d="M208.14 200.273C214.468 200.54 221.338 200.152 227.64 199.375C231.012 198.959 234.414 198.87 237.747 198.357C238.217 198.285 239.716 197.568 239.953 198.186C240.328 199.161 240.408 200.553 240.363 201.581C240.233 204.567 240.601 207.825 241.248 210.737C241.761 213.046 242.147 214.972 242.147 217.343C242.147 218.639 242.837 220.771 242.041 221.795C239.822 224.648 234.954 225.814 231.577 226.67C226.616 227.928 221.708 229.233 216.582 229.51C213.402 229.682 210.342 229.048 207.202 229.048C204.309 229.048 204.584 228.989 203.569 226.247C202.568 223.547 202.432 221.116 202.432 218.214C202.432 216.704 201.768 215.051 201.362 213.59C201.055 212.484 201.548 211.129 201.706 210.023C201.871 208.863 203.611 206.2 203.027 205.148C202.454 204.117 202.15 202.352 203.093 201.409C203.863 200.639 215.2 199.711 204.81 201.938" stroke="#57B760" stroke-opacity="0.18" stroke-width="1.66333" stroke-linecap="round" stroke-linejoin="round"/>
<path d="M202.908 203.127C204.228 204.9 205.274 207.001 206.607 208.715C207.05 209.285 208.11 209.779 208.378 210.38C209.101 212.008 213.268 213.439 214.798 214.423C216.526 215.533 220.081 220.436 222.527 217.99C227.126 213.391 231.859 208.896 236.439 204.316C237.304 203.451 237.604 202.305 238.394 201.515C240.8 199.11 236.796 199.322 235.488 199.322" stroke="#57B760" stroke-opacity="0.18" stroke-width="1.66333" stroke-linecap="round" stroke-linejoin="round"/>
<path d="M336.876 240.336C343.204 240.603 350.075 240.215 356.377 239.438C359.749 239.022 363.15 238.934 366.484 238.421C366.954 238.348 368.453 237.631 368.69 238.249C369.065 239.224 369.144 240.617 369.1 241.644C368.97 244.63 369.338 247.888 369.985 250.8C370.498 253.11 370.883 255.035 370.883 257.406C370.883 258.703 371.574 260.835 370.778 261.858C368.558 264.712 363.69 265.877 360.314 266.733C355.352 267.991 350.445 269.297 345.319 269.574C342.139 269.746 339.079 269.111 335.938 269.111C333.045 269.111 333.321 269.052 332.305 266.311C331.305 263.61 331.169 261.179 331.169 258.278C331.169 256.768 330.505 255.115 330.099 253.654C329.792 252.547 330.284 251.193 330.442 250.087C330.608 248.926 332.348 246.264 331.764 245.212C331.191 244.18 330.887 242.415 331.83 241.473C332.599 240.703 343.936 239.775 333.547 242.001" stroke="#57B760" stroke-opacity="0.18" stroke-width="1.66333" stroke-linecap="round" stroke-linejoin="round"/>
<path d="M331.645 243.19C332.964 244.964 334.011 247.064 335.344 248.779C335.787 249.348 336.847 249.842 337.114 250.443C337.838 252.072 342.005 253.502 343.535 254.486C345.263 255.597 348.818 260.499 351.264 258.053C355.862 253.455 360.596 248.959 365.176 244.379C366.041 243.514 366.341 242.368 367.131 241.578C369.536 239.173 365.533 239.385 364.225 239.385" stroke="#57B760" stroke-opacity="0.18" stroke-width="1.66333" stroke-linecap="round" stroke-linejoin="round"/>
<path d="M935.876 224.336C942.204 224.603 949.075 224.215 955.377 223.438C958.749 223.022 962.15 222.934 965.484 222.421C965.954 222.348 967.453 221.631 967.69 222.249C968.065 223.224 968.144 224.617 968.1 225.644C967.97 228.63 968.338 231.888 968.985 234.8C969.498 237.11 969.883 239.035 969.883 241.406C969.883 242.703 970.574 244.835 969.778 245.858C967.558 248.712 962.69 249.877 959.314 250.733C954.352 251.991 949.445 253.297 944.319 253.574C941.139 253.746 938.079 253.111 934.938 253.111C932.045 253.111 932.321 253.052 931.305 250.311C930.305 247.61 930.169 245.179 930.169 242.278C930.169 240.768 929.505 239.115 929.099 237.654C928.792 236.547 929.284 235.193 929.442 234.087C929.608 232.926 931.348 230.264 930.764 229.212C930.191 228.18 929.887 226.415 930.83 225.473C931.599 224.703 942.936 223.775 932.547 226.001" stroke="#57B760" stroke-opacity="0.18" stroke-width="1.66333" stroke-linecap="round" stroke-linejoin="round"/>
<path d="M930.645 227.19C931.964 228.964 933.011 231.064 934.344 232.779C934.787 233.348 935.847 233.842 936.114 234.443C936.838 236.072 941.005 237.502 942.535 238.486C944.263 239.597 947.818 244.499 950.264 242.053C954.862 237.455 959.596 232.959 964.176 228.379C965.041 227.514 965.341 226.368 966.131 225.578C968.536 223.173 964.533 223.385 963.225 223.385" stroke="#57B760" stroke-opacity="0.18" stroke-width="1.66333" stroke-linecap="round" stroke-linejoin="round"/>
<path d="M18.4227 200.173C30.3402 194.495 39.9743 185.107 49.6616 176.254C57.2755 169.296 65.2601 162.421 73.6627 156.417C75.3207 155.232 77.663 152.847 79.9043 153.864C82.1254 154.871 83.4057 157.612 85.1611 159.236C89.484 163.234 93.371 168.12 96.9252 172.818C100.838 177.991 94.9705 180.853 91.3435 184.24C87.2235 188.086 83.2889 192.053 78.7887 195.447C74.511 198.674 71.0741 203.121 67.1582 206.773C61.1902 212.34 55.6082 218.266 49.6574 223.838C46.115 227.155 42.0506 229.863 38.6393 233.298C37.444 234.501 36.3385 236.092 34.9599 237.094C33.8528 237.899 32.3205 234.804 31.9264 234.221C28.798 229.594 23.9519 226.428 20.8885 221.589C18.9625 218.546 17.6665 214.79 15.3611 212.012C14.2605 210.685 11.5091 207.699 12.7146 205.761C13.9454 203.783 17.4403 202.835 19.3466 201.418C20.8326 200.313 22.639 198.949 24.3303 198.181C25.5595 197.623 26.7661 196.634 27.8654 195.871C30.7584 193.866 27.6927 194.723 25.736 195.468" stroke="#57B760" stroke-opacity="0.18" stroke-width="1.66333" stroke-linecap="round" stroke-linejoin="round"/>
<path d="M20.2433 209.257C27.4983 213.748 34.0063 220.248 39.6701 226.658C39.8136 226.82 41.192 227.781 40.9818 228.136C40.5761 228.823 35.8672 225.724 35.4173 225.414" stroke="#57B760" stroke-opacity="0.18" stroke-width="1.66333" stroke-linecap="round" stroke-linejoin="round"/>
<path d="M27.4355 202.763C33.3175 204.448 36.823 207.652 41.572 211.081C43.6874 212.609 45.8421 213.987 47.7408 215.783C48.6324 216.627 49.2674 217.737 50.0912 218.647C51.2203 219.893 46.6095 217.2 46.0664 216.89" stroke="#57B760" stroke-opacity="0.18" stroke-width="1.66333" stroke-linecap="round" stroke-linejoin="round"/>
<path d="M35.9822 197.73C40.0983 201.444 44.2361 205.108 48.4814 208.674C50.0941 210.028 51.925 211.271 53.3179 212.867C55.7905 215.699 52.5522 212.024 51.4524 210.986" stroke="#57B760" stroke-opacity="0.18" stroke-width="1.66333" stroke-linecap="round" stroke-linejoin="round"/>
<path d="M41.7494 194.188C44.8025 196.045 47.9917 197.843 50.5769 200.346C51.6374 201.373 52.5171 202.583 53.6509 203.534C55.0476 204.706 56.2711 206.073 57.6771 207.212C59.6791 208.834 59.9801 209.307 57.6018 207.272" stroke="#57B760" stroke-opacity="0.18" stroke-width="1.66333" stroke-linecap="round" stroke-linejoin="round"/>
<path d="M49.1846 188.738C52.553 191.374 55.6705 194.051 58.487 197.266C59.7345 198.69 60.7398 200.334 62.323 201.427C63.7734 202.428 64.7899 202.717 63.0921 201.091" stroke="#57B760" stroke-opacity="0.18" stroke-width="1.66333" stroke-linecap="round" stroke-linejoin="round"/>
<path d="M56.3419 183.182C59.3078 185.411 62.2318 187.445 64.6008 190.315C65.6853 191.629 66.5415 193.14 67.7527 194.352C70.2121 196.813 68.5207 195.572 66.7416 193.902" stroke="#57B760" stroke-opacity="0.18" stroke-width="1.66333" stroke-linecap="round" stroke-linejoin="round"/>
<path d="M62.9436 177.418C67.1074 181.401 70.5947 186.067 74.7659 190.001C77.5745 192.65 73.5504 188.405 72.8919 187.651" stroke="#57B760" stroke-opacity="0.18" stroke-width="1.66333" stroke-linecap="round" stroke-linejoin="round"/>
<path d="M71.0039 172.836C74.5086 171.405 78.1441 169.699 80.0276 166.203C80.547 165.238 81.2161 164.399 81.4296 163.312C81.7227 161.82 81.6653 162.46 80.5592 163.426" stroke="#57B760" stroke-opacity="0.18" stroke-width="1.66333" stroke-linecap="round" stroke-linejoin="round"/>
<path d="M76.6467 177.649C79.4252 175.07 82.5312 172.254 84.5673 168.981C85.5828 167.349 87.5172 165.356 84.8128 167.717" stroke="#57B760" stroke-opacity="0.18" stroke-width="1.66333" stroke-linecap="round" stroke-linejoin="round"/>
<path d="M85.5545 183.053C88.0861 180.302 90.3389 177.743 92.6693 174.867C93.4222 173.937 95.716 172.731 92.9563 173.469" stroke="#57B760" stroke-opacity="0.18" stroke-width="1.66333" stroke-linecap="round" stroke-linejoin="round"/>
<path d="M83.5402 181.663C86.1902 179.392 89.1869 176.748 91.2869 173.881C91.847 173.116 92.278 172.264 92.7909 171.469C93.6502 170.138 93.7045 170.587 92.4014 170.724" stroke="#57B760" stroke-opacity="0.18" stroke-width="1.66333" stroke-linecap="round" stroke-linejoin="round"/>
<path d="M27.3971 213.844C40.5991 208.481 43.8565 193.926 54.6149 185.695C55.9237 184.694 56.9868 183.581 58.513 182.888C59.5335 182.424 60.7936 182.202 61.7226 181.609C62.2892 181.248 66.9945 177.653 63.7245 179.138" stroke="#57B760" stroke-opacity="0.18" stroke-width="1.66333" stroke-linecap="round" stroke-linejoin="round"/>
<path d="M21.2501 209.952C22.7316 208.15 24.0469 206.608 25.9265 205.305C26.2348 205.092 26.7104 205.056 26.9639 204.77C27.4661 204.205 28.2271 203.378 28.4206 202.649C29.1829 199.777 32.9077 200.308 34.8856 198.868C36.7671 197.498 38.5785 196.111 40.4967 194.757C42.61 193.266 43.5877 191.958 45.285 190.048C46.844 188.292 48.3576 186.517 50.0078 184.855C51.3579 183.496 53.4793 182.259 54.3387 180.52C55.3085 178.556 57.7872 176.309 60.0182 176.673C60.7846 176.798 66.4151 180.06 62.7349 177.974" stroke="#57B760" stroke-opacity="0.18" stroke-width="1.66333" stroke-linecap="round" stroke-linejoin="round"/>
<path d="M200.745 282.78C202.227 280.978 203.542 279.436 205.422 278.133C205.73 277.92 206.206 277.884 206.459 277.598C206.961 277.033 207.722 276.206 207.916 275.477C208.678 272.605 212.403 273.136 214.381 271.696C216.262 270.326 218.074 268.939 219.992 267.585C222.105 266.094 223.083 264.786 224.78 262.875C226.339 261.12 227.853 259.345 229.503 257.683C230.853 256.324 232.974 255.087 233.834 253.347C234.804 251.384 237.282 249.136 239.513 249.5C240.28 249.625 245.91 252.888 242.23 250.802" stroke="#57B760" stroke-opacity="0.18" stroke-width="1.66333" stroke-linecap="round" stroke-linejoin="round"/>
<path d="M741.973 288.332C743.794 286.875 745.399 285.637 747.507 284.75C747.853 284.605 748.326 284.668 748.633 284.441C749.241 283.991 750.156 283.339 750.495 282.666C751.834 280.012 755.369 281.301 757.601 280.299C759.725 279.347 761.784 278.364 763.94 277.435C766.315 276.412 767.542 275.334 769.597 273.814C771.484 272.418 773.332 270.993 775.289 269.708C776.891 268.656 779.221 267.884 780.421 266.359C781.775 264.638 784.664 262.95 786.772 263.766C787.496 264.047 792.333 268.401 789.162 265.6" stroke="#57B760" stroke-opacity="0.18" stroke-width="1.66333" stroke-linecap="round" stroke-linejoin="round"/>
<path d="M33.1969 216.972C43.1175 211.739 48.6233 200.33 55.324 191.711C57.7921 188.537 61.3192 186.427 63.9026 183.308C65.0076 181.974 67.4479 180.557 64.6098 180.58" stroke="#57B760" stroke-opacity="0.18" stroke-width="1.66333" stroke-linecap="round" stroke-linejoin="round"/>
<path d="M36.739 220.204C45.7282 214.677 51.4841 204.395 58.0244 196.247C60.9998 192.54 63.8717 188.755 66.8837 185.079C68.2569 183.402 70.6513 182.355 67.5787 184.072" stroke="#57B760" stroke-opacity="0.18" stroke-width="1.66333" stroke-linecap="round" stroke-linejoin="round"/>
<path d="M40.28 225.971C45.8894 220.501 50.4182 214.598 55.0079 208.27C57.7986 204.423 60.2111 200.098 63.4881 196.634C65.3684 194.646 66.816 192.319 68.5231 190.211C69.2107 189.363 69.6852 188.373 70.3919 187.532C71.9839 185.635 70.874 187.351 69.7655 188.38" stroke="#57B760" stroke-opacity="0.18" stroke-width="1.66333" stroke-linecap="round" stroke-linejoin="round"/>
<path d="M41.5991 228.368C44.3906 225.634 48.4805 223.002 50.3428 219.455C51.0189 218.167 52.6921 215.058 53.8653 214.27C55.4163 213.228 56.1555 211.012 57.2845 209.618C58.4602 208.167 59.6111 206.751 60.8868 205.37C62.0831 204.076 62.4661 201.804 63.947 200.69C65.5967 199.448 66.3994 197.527 67.7154 196.046C68.8544 194.764 71.0227 193.435 72.4358 192.455C73.2187 191.912 73.7656 191.173 74.6536 190.769C76.4535 189.952 75.2854 190.37 73.6378 190.309" stroke="#57B760" stroke-opacity="0.18" stroke-width="1.66333" stroke-linecap="round" stroke-linejoin="round"/>
<path d="M70.7775 173.86C73.0868 174.469 75.934 174.887 78.0384 176.146C79.3965 176.958 80.579 177.773 78.1059 176.294" stroke="#57B760" stroke-opacity="0.18" stroke-width="1.66333" stroke-linecap="round" stroke-linejoin="round"/>
<path d="M73.1757 170.006C76.4698 170.866 78.7978 171.831 81.484 173.582C83.2403 174.727 82.9585 174.41 81.129 173.308" stroke="#57B760" stroke-opacity="0.18" stroke-width="1.66333" stroke-linecap="round" stroke-linejoin="round"/>
<path d="M77.1716 166.117C80.0003 167.708 82.7446 169.515 85.6696 170.9C87.3899 171.715 86.487 171.658 85.1591 171.017" stroke="#57B760" stroke-opacity="0.18" stroke-width="1.66333" stroke-linecap="round" stroke-linejoin="round"/>
<path d="M79.4478 163.009C82.422 164.363 85.1639 165.711 87.9024 167.415C89.1512 168.192 88.0179 168.242 87.0707 167.614" stroke="#57B760" stroke-opacity="0.18" stroke-width="1.66333" stroke-linecap="round" stroke-linejoin="round"/>
<path d="M72.2369 172.506C74.4841 169.835 76.7383 167.303 78.7843 164.565C79.3656 163.787 82.906 159.455 81.3759 161.672" stroke="#57B760" stroke-opacity="0.18" stroke-width="1.66333" stroke-linecap="round" stroke-linejoin="round"/>
<path d="M74.5974 177.196C77.5213 174.612 81.7349 171.165 82.6786 167.303C82.9563 166.167 83.5587 165.031 84.4415 164.249C85.3368 163.456 86.2727 163.098 84.9354 164.435" stroke="#57B760" stroke-opacity="0.18" stroke-width="1.66333" stroke-linecap="round" stroke-linejoin="round"/>
<path d="M72.2528 177.109C75.3705 173.751 78.0351 171.494 79.7965 167.357C80.2539 166.283 80.7785 165.393 81.5294 164.547C82.3251 163.651 83.4673 162.812 81.9308 164.416" stroke="#57B760" stroke-opacity="0.18" stroke-width="1.66333" stroke-linecap="round" stroke-linejoin="round"/>
<path d="M83.8367 178.763C85.2723 179.673 86.7118 180.516 88.2038 181.274C88.82 181.587 88.0578 180.981 87.7958 180.883" stroke="#57B760" stroke-opacity="0.18" stroke-width="1.66333" stroke-linecap="round" stroke-linejoin="round"/>
<path d="M86.6343 174.265C86.7313 174.348 92.3753 179.184 91.3744 178.105" stroke="#57B760" stroke-opacity="0.18" stroke-width="1.66333" stroke-linecap="round" stroke-linejoin="round"/>
<path d="M89.9869 172.512C91.2318 173.71 95.0448 177.213 93.7024 176.126" stroke="#57B760" stroke-opacity="0.18" stroke-width="1.66333" stroke-linecap="round" stroke-linejoin="round"/>
<path d="M82.1686 180.673C84.2318 178.751 88.7567 174.945 89.8653 171.991C90.3022 170.827 92.3035 169.332 90.4215 170.932" stroke="#57B760" stroke-opacity="0.18" stroke-width="1.66333" stroke-linecap="round" stroke-linejoin="round"/>
<path d="M82.429 181.246C82.6249 181.403 86.5712 185.653 87.4128 183.592C87.8423 182.54 88.4017 181.17 89.4554 180.59C91.304 179.573 91.6452 176.369 93.5376 175.509C95.6844 174.534 95.4838 172.899 93.4846 172.319C92.6991 172.092 93.3187 170.544 92.5029 170.665C91.7562 170.777 91.3607 170.501 90.5259 170.654" stroke="#57B760" stroke-opacity="0.18" stroke-width="1.66333" stroke-linecap="round" stroke-linejoin="round"/>
<path d="M70.5175 173.287C71.871 175.874 72.127 176.811 74.3108 177.89C74.9002 178.181 75.6697 177.777 76.117 178.004C77.0021 178.454 78.7514 178.463 79.4121 177.648C80.7407 176.008 81.2297 174.949 83.2651 173.951C84.5493 173.322 85.5821 171.837 86.1763 170.606C86.8294 169.253 88.0055 168.234 88.6949 166.876C88.9885 166.298 86.6187 164.808 86.5973 163.808C86.5913 163.524 83.7774 163.516 83.3092 163.278C82.7419 162.99 82.4819 162.584 82.2097 161.985C81.8121 161.109 81.107 162.196 80.0386 162.279" stroke="#57B760" stroke-opacity="0.18" stroke-width="1.66333" stroke-linecap="round" stroke-linejoin="round"/>
<path d="M23.6482 206.097C26.845 207.312 29.6329 208.879 32.511 210.613C35.0098 212.118 37.8336 212.92 40.3165 214.379C42.0842 215.418 43.9186 217.789 45.2232 219.347C45.6579 219.866 45.9825 220.351 46.2908 220.936C46.9981 222.278 46.2622 219.034 46.1873 218.679" stroke="#57B760" stroke-opacity="0.18" stroke-width="1.66333" stroke-linecap="round" stroke-linejoin="round"/>
<path d="M54.5189 181.705C55.4053 182.636 58.995 187.775 58.2869 183.912" stroke="#57B760" stroke-opacity="0.18" stroke-width="1.66333" stroke-linecap="round" stroke-linejoin="round"/>
<path d="M873.088 245.756C880.708 244.966 888.292 243.655 895.902 243.021C899.257 242.741 902.492 242.688 905.851 242.645C906.507 242.637 910.985 241.466 911.336 242.299C911.768 243.325 911.443 245.258 911.584 246.372C911.848 248.457 912.312 250.448 912.478 252.549C912.671 254.984 914.143 260.49 911.306 261.957C909.553 262.864 907.46 263.591 905.55 264.069C903.202 264.656 900.842 265.688 898.456 266.045C895.352 266.509 892.172 267.318 889.056 267.533C886.925 267.68 884.947 268.052 882.917 268.72C879.914 269.709 876.395 269.832 873.283 269.832C871.973 269.832 870.682 269.949 869.376 269.967C868.482 269.98 867.329 270.501 866.46 270.163C864.595 269.437 864.549 265.589 864.213 264.016C863.506 260.695 862.665 257.407 862.267 254.029C862.128 252.846 861.648 250.658 862.463 249.611C864.017 247.613 867.026 247.614 869.293 246.906C870.256 246.605 871.116 246.155 872.066 245.884C874.221 245.268 871.363 245.434 870.383 245.621" stroke="#57B760" stroke-opacity="0.18" stroke-width="1.66333" stroke-linecap="round" stroke-linejoin="round"/>
<path d="M864.702 252.113C870.252 251.291 875.98 250.341 884.991 247.514C887.195 246.823 890.044 246.584 892.355 246.425C894.477 246.278 896.566 245.856 898.652 246.154C901.177 246.515 904.018 244.682 906.437 245.891C908.997 247.172 909.337 251.432 909.337 253.932C909.337 255.11 909.878 256.241 909.878 257.418C909.878 258.258 909.602 260.217 908.796 260.665C907.344 261.472 905.866 262.719 904.19 263.054C902.542 263.384 900.413 262.485 898.915 263.009C895.866 264.076 892.511 264.601 889.319 264.955C886.184 265.304 883.382 265.402 880.362 266.481C877.627 267.457 874.699 267.136 871.87 267.54C871.088 267.652 869.276 268.641 868.79 267.668C868.345 266.78 868.453 265.728 868.053 264.828C867.567 263.733 867.034 261.432 866.062 260.702C865.22 260.071 864.785 258.518 864.837 257.524C864.886 256.602 864.702 255.844 864.702 254.954C864.702 254.597 864.51 254.26 864.439 253.939C864.342 253.504 864.812 253.278 864.694 252.865C864.541 252.328 866.865 253.144 867.272 253.609C867.836 254.254 868.072 255.204 868.594 255.9C869.186 256.689 869.999 257.883 870.383 258.771C871.088 260.405 871.735 262.143 871.735 263.941C871.735 264.867 871.927 266.116 873.088 266.18C873.766 266.218 873.943 267.336 874.035 265.774C874.042 265.654 873.999 264.793 874.305 265.023C874.486 265.159 873.987 262.754 873.907 262.528C873.374 261.018 873.362 259.128 872.607 257.726C871.966 256.535 870.115 252.726 871.299 251.542C871.428 251.413 872.154 251.582 872.479 251.437C872.775 251.305 873.04 250.761 873.291 250.761C873.517 250.761 874.307 250.724 874.44 250.558C874.62 250.333 874.727 251.228 874.741 251.302C874.865 251.948 875.239 252.572 875.455 253.195C876.491 256.188 877.416 258.672 877.416 261.912C877.416 263.236 877.43 264.438 878.062 265.639C878.287 266.065 879.162 265.963 879.144 265.94C878.962 265.696 879.755 265.65 879.851 265.361C880.336 263.906 879.373 262.332 878.889 260.988C878.172 258.997 877.822 256.839 877.213 254.811C876.92 253.834 876.745 252.796 876.883 251.768C876.935 251.376 877.059 250.408 877.416 250.19C878.657 249.431 878.791 250.333 879.61 251.602C881.28 254.187 882.462 256.789 883.653 259.643C884.33 261.265 885.118 263.079 885.532 264.797C885.651 265.293 886.145 266.625 886.681 265.97C887.548 264.91 886.729 262.995 886.268 261.919C884.752 258.382 882.971 255.383 883.976 251.475C884.28 250.291 884.573 249.158 884.991 248.01C885.216 247.39 886.267 249.311 886.283 249.348C886.949 250.876 887.586 252.468 888.034 254.074C888.712 256.509 889.946 258.575 891.355 260.642C892.466 262.271 894.02 262.169 893.895 259.725C893.733 256.572 891.149 253.998 891.077 250.761C891.064 250.156 890.664 248.889 891.152 248.401C891.964 247.589 892.986 249.086 893.362 249.603C894.405 251.041 895.2 252.401 895.804 254.09C896.39 255.726 896.571 257.502 897.329 259.072C897.855 260.16 898.998 262.062 900.14 262.633C900.677 262.902 900.789 261.529 900.816 261.341C901.059 259.611 900.366 258.288 899.659 256.757C898.781 254.859 897.266 251.996 897.78 249.791C898.123 248.32 898.723 248.247 899.809 249.295C901.621 251.045 902.488 254.902 903.378 257.238C903.798 258.339 904.14 259.54 905.279 260.093C906.533 260.702 906.947 258.802 906.872 257.944C906.657 255.454 904.782 253.223 903.686 251.031C903.144 249.947 901.918 248.579 902.77 247.349C902.85 247.233 909.269 247.603 904.716 249.603C900.346 251.523 895.181 252.407 890.529 253.398C888.034 253.929 885.648 254.568 883.247 255.435C881.296 256.139 879.38 256.118 877.363 256.389C875.018 256.704 873.075 257.936 870.803 258.395C869.589 258.641 868.241 258.774 867.136 259.387C866.796 259.576 865.91 260.502 865.919 260.935C866.007 265.052 872.906 262.542 875.042 261.927C880.888 260.243 886.941 258.969 892.655 256.84C895.125 255.919 897.357 254.399 899.922 253.744C901.233 253.409 908.626 252.881 906.001 256.231C903.747 259.106 899.329 258.911 896.052 259.583C891.319 260.552 886.94 261.012 882.376 262.724C880.679 263.36 879.059 263.932 877.409 264.677C876.133 265.254 874.841 265.002 873.494 265.128C873.184 265.157 868.398 265.662 869.601 266.826C872.535 269.665 878.138 266.525 881.098 265.489C883.266 264.73 885.572 264.508 887.771 263.866C889.956 263.228 892.074 262.385 894.248 261.717C897.667 260.666 901.025 258.964 904.468 258.095C905.142 257.924 906.062 257.7 906.76 257.726C906.931 257.733 907.248 257.659 906.82 257.681C905.323 257.76 903.784 258.116 902.304 258.335" stroke="#57B760" stroke-opacity="0.18" stroke-width="1.66333" stroke-linecap="round" stroke-linejoin="round"/>
<path d="M375.712 171.486C370.428 170.121 365.473 169.769 361.516 174.166C360.834 174.925 359.081 177.062 359.298 178.255C360.299 183.759 364.024 184.255 369.013 183.707C374.201 183.138 380.042 178.899 379.547 172.965C379.334 170.403 379.215 168.97 376.267 168.183C374.953 167.832 373.354 167.95 372.224 168.772C371.374 169.39 372.549 168.733 372.801 168.575" stroke="#57B760" stroke-opacity="0.18" stroke-width="1.66333" stroke-linecap="round" stroke-linejoin="round"/>
<path d="M527.215 181.296C528.49 177.65 529.447 173.639 531.007 170.13C531.144 169.821 531.982 168 532.271 168C533.521 168 533.322 175.936 533.629 177.317C534.795 182.564 533.894 181.292 537.749 178.019C539.655 176.4 552.313 170.785 547.44 176.006C544.445 179.214 540.365 182.448 536.321 184.246C535.68 184.531 537.733 185.268 538.076 185.697C539.263 187.181 540.251 188.797 541.33 190.356C544.147 194.424 538.831 191.654 536.882 190.777C534.987 189.924 532.575 189.457 531.007 188.038C530.737 187.794 529.743 186.322 529.743 186.774C529.743 192.579 528.885 193.739 524.686 197.308C521.75 199.804 522.738 190.914 522.907 190.051C523.252 188.29 523.876 186.767 524.476 185.089C524.716 184.415 526.145 183.08 525.435 183.169C521.643 183.643 525.666 187.957 520.028 184.433C513.232 180.186 515.592 172.328 522.954 178.113C525.073 179.778 524.775 182.255 527.402 183.005C530.574 183.911 527.874 181.351 526.793 179.19" stroke="#57B760" stroke-opacity="0.18" stroke-width="1.66333" stroke-linecap="round" stroke-linejoin="round"/>
<path d="M460.583 214.604C462.114 213.844 470.046 208.114 467.934 212.942C467.25 214.505 466.07 216.236 464.891 217.46C462.965 219.46 461.274 227.955 465.125 224.389C466.618 223.007 470.286 214.748 472.803 217.132C476.38 220.521 472.347 221.974 470.064 223.242C466.758 225.079 467.391 230.965 471.539 228.299C473.08 227.307 476.414 222.791 478.07 225.77C479.814 228.909 473.696 230.855 474.09 234.01C474.391 236.414 476.625 235.228 477.859 234.502C478.64 234.043 477.604 232.165 478.281 231.037" stroke="#57B760" stroke-opacity="0.18" stroke-width="1.66333" stroke-linecap="round" stroke-linejoin="round"/>
<path d="M267.6 263.061C271.564 263.036 275.903 263.866 278.976 260.954C279.724 260.246 280.236 259.799 280.755 260.954C282.056 263.845 282.347 267.688 282.347 270.833C282.347 272.002 274.823 271.909 273.077 271.909C272.268 271.909 269.673 273.042 268.957 272.237C268.355 271.559 271 268.675 270.338 267.485C269.662 266.267 269.916 265.493 268.255 265.191C265.726 264.731 270.252 263.482 267.6 263.482" stroke="#57B760" stroke-opacity="0.18" stroke-width="1.66333" stroke-linecap="round" stroke-linejoin="round"/>
<path d="M828.587 264.704C826.173 269.472 822.714 275.232 827.112 280.013C829.722 282.85 833.087 280.539 835.657 279.03C839.936 276.517 841.171 270.584 837.202 267.092C834.765 264.947 832.825 265.263 830.273 264.189C827.979 263.223 828.195 266.361 829.851 264.704" stroke="#57B760" stroke-opacity="0.18" stroke-width="1.66333" stroke-linecap="round" stroke-linejoin="round"/>
<path d="M864.32 196.371C863.737 201.962 860.902 218.413 860.528 212.804C860.373 210.488 854.731 204.649 852.99 202.715C848.983 198.262 858.343 203.243 859.732 203.745C861.007 204.205 868.767 209.17 869.798 207.654C871.407 205.287 872.655 193 868.323 193C866.581 193 866.427 196.562 866.427 197.846C866.427 197.95 863.362 198.094 863.899 195.95" stroke="#57B760" stroke-opacity="0.18" stroke-width="1.66333" stroke-linecap="round" stroke-linejoin="round"/>
<path d="M498 231.538C498.499 230.431 505.201 215.485 508.019 223.204C508.982 225.842 505.636 229.281 504.508 231.538C502.077 236.4 506.411 241.106 510.407 236.384C511.955 234.554 512.643 228.327 509.049 229.525C507.55 230.025 502.668 228.899 501.886 229.525C495.451 234.672 498.898 219.49 503.478 223.743C506.082 226.161 505.757 231.664 506.521 234.909C506.921 236.608 507.791 238.269 508.721 239.731C509.049 240.246 506.547 234.728 506.006 233.645" stroke="#57B760" stroke-opacity="0.18" stroke-width="1.66333" stroke-linecap="round" stroke-linejoin="round"/>
<path d="M270.549 201.542C276.628 199.78 280.42 198.592 286.35 198.592C289.103 198.592 288.243 196.904 286.467 200.278C285.203 202.68 283.345 205.105 281.692 207.23C280.937 208.201 280.377 211.476 279.725 211.982C279.416 212.223 277.511 209.318 277.08 209.126C275.643 208.488 274.492 207.131 272.913 206.645C271.943 206.346 265.344 204.754 265.914 204.398C268.263 202.93 269.436 203.358 272.024 202.783C276.479 201.793 274.567 202.117 270.549 202.385" stroke="#57B760" stroke-opacity="0.18" stroke-width="1.66333" stroke-linecap="round" stroke-linejoin="round"/>
<path d="M267.6 172.468C266.397 177.336 264.976 181.818 263.058 186.373C261.833 189.283 264.417 186.284 265.914 185.952C270.408 184.953 275.544 182.468 279.819 180.568C281.731 179.718 275.624 174.659 274.131 173.498C271.555 171.495 269.283 171.625 266.336 171.625" stroke="#57B760" stroke-opacity="0.18" stroke-width="1.66333" stroke-linecap="round" stroke-linejoin="round"/>
<path d="M184.17 174.575C178.837 181.872 178.753 182.473 185.832 185.718C188.707 187.035 192.419 186.526 194.61 184.173C199.139 179.308 194.73 173.231 190.678 170.221C189.214 169.133 185.013 167.639 185.013 170.783C185.013 175.953 186.897 174.205 184.591 170.361" stroke="#57B760" stroke-opacity="0.18" stroke-width="1.66333" stroke-linecap="round" stroke-linejoin="round"/>
<path d="M630.522 147.286C630.196 147.768 622.03 161.003 625.653 156.345C626.716 154.978 629.312 150.73 626.285 154.262C620.78 160.683 633.314 147.735 624.061 155.666C622.329 157.151 625.417 153.706 625.793 153.185C626.694 151.938 621.652 157.384 620.784 158.288C618.627 160.532 625.278 153.981 627.479 151.78C629.275 149.984 624.238 154.488 623.546 155.526C621.696 158.301 635.601 148.699 627.736 154.262C627.012 154.774 621.569 159.269 623.64 156.509C625.057 154.619 630.226 149.736 628.555 151.406C626.831 153.13 621.92 158.31 626.73 155.198C627.819 154.493 617.504 145.268 616.711 144.009C616.19 143.184 615.436 141.648 616.664 143.353C618.921 146.488 621.502 149.346 623.991 152.295C626.154 154.86 628.277 157.897 629.679 154.191C630.743 151.381 632.01 148.746 633.471 146.115C633.625 145.838 635.407 141.498 635.063 141.574C634.281 141.748 632.2 148.255 631.692 149.065C630.116 151.583 628.515 154.77 626.402 156.884C626.055 157.23 626.308 153.339 626.308 152.506C626.308 149.397 626.076 146.391 625.863 143.306C625.801 142.4 625.044 134.421 625.044 137.852C625.044 144.657 624.098 150.983 624.95 157.914C625.001 158.328 624.715 163.532 625.044 163.532C625.583 163.532 626.73 159.377 626.73 158.663" stroke="#57B760" stroke-opacity="0.18" stroke-width="1.66333" stroke-linecap="round" stroke-linejoin="round"/>
<path d="M578.986 207.441C577.961 208.232 565.627 219.784 564.145 217.788C561.646 214.425 562.741 210.773 564.238 207.113C564.644 206.122 566.603 202.205 566.86 202.9C568.268 206.701 569.874 210.696 571.589 214.37C572.728 216.81 572.753 222.553 576.856 221.323C584.419 219.054 578.241 210.247 581.725 205.99C586.068 200.682 576.809 212.812 578.565 204.913" stroke="#57B760" stroke-opacity="0.18" stroke-width="1.66333" stroke-linecap="round" stroke-linejoin="round"/>
<path d="M590.41 269.786C585.257 269.607 578.565 268.538 574.89 273.133C573.228 275.21 576.1 276.432 577.863 276.246C581.027 275.913 585.364 271.52 588.701 274.023C592.73 277.044 591.036 280.068 587.905 283.199C584.01 287.094 579.448 280.07 577.441 277.136C573.963 272.052 572.166 262.506 576.739 257.753C582.248 252.028 579.518 261.841 578.822 265.549C577.359 273.352 578.462 280.526 579.642 288.279C581.153 298.213 579.477 287.684 579.033 283.691" stroke="#57B760" stroke-opacity="0.18" stroke-width="1.66333" stroke-linecap="round" stroke-linejoin="round"/>
<path d="M450.544 174.273C451.438 173.136 453.152 171.032 450.75 170.66C450.207 170.575 449.7 170.256 449.167 170.498C447.525 171.242 446 172.88 446 174.827C446 177.938 449.412 178.612 451.89 178.572C456.072 178.504 457.344 174.43 458.821 171.129C460.313 167.796 461.97 164.516 463.518 161.207C465.269 157.462 468.142 154.478 469.959 150.768C470.738 149.176 471.755 147.775 472.758 146.322C474.314 144.069 475.424 141.795 476.537 139.296C477.45 137.246 478.463 135.374 479.582 133.433C480.034 132.649 479.864 131.446 480.729 132.285C481.386 132.922 482.431 133.341 483.315 133.503C487.179 134.21 490.733 134.959 494.713 134.643C498.738 134.323 502.76 133.746 506.722 132.979C508.069 132.718 507.495 133.032 506.86 133.849C505.783 135.236 504.863 136.705 503.831 138.11C502.485 139.942 502.011 142.148 501.215 144.242C500.339 146.544 499.297 148.743 498.461 151.083C496.844 155.606 494.486 159.73 491.569 163.526C489.878 165.725 487.789 169.567 484.623 169.411C479.723 169.171 483.032 159.526 485.372 157.64C486.633 156.624 488.011 157.717 488.165 159.08C488.376 160.953 487.733 163.519 485.916 164.435C483.998 165.4 482.527 165.285 484.003 162.794C484.896 161.287 485.427 162.945 485.793 162.208" stroke="#57B760" stroke-opacity="0.18" stroke-width="1.66333" stroke-linecap="round" stroke-linejoin="round"/>
<path d="M794.544 182.273C795.438 181.136 797.152 179.032 794.75 178.66C794.207 178.575 793.7 178.256 793.167 178.498C791.525 179.242 790 180.88 790 182.827C790 185.938 793.412 186.612 795.89 186.572C800.072 186.504 801.344 182.43 802.821 179.129C804.313 175.796 805.97 172.516 807.518 169.207C809.269 165.462 812.142 162.478 813.959 158.768C814.738 157.176 815.755 155.775 816.758 154.322C818.314 152.069 819.424 149.795 820.537 147.296C821.45 145.246 822.463 143.374 823.582 141.433C824.034 140.649 823.864 139.446 824.729 140.285C825.386 140.922 826.431 141.341 827.315 141.503C831.179 142.21 834.733 142.959 838.713 142.643C842.738 142.323 846.76 141.746 850.722 140.979C852.069 140.718 851.495 141.032 850.86 141.849C849.783 143.236 848.863 144.705 847.831 146.11C846.485 147.942 846.011 150.148 845.215 152.242C844.339 154.544 843.297 156.743 842.461 159.083C840.844 163.606 838.486 167.73 835.569 171.526C833.878 173.725 831.789 177.567 828.623 177.411C823.723 177.171 827.032 167.526 829.372 165.64C830.633 164.624 832.011 165.717 832.165 167.08C832.376 168.953 831.733 171.519 829.916 172.435C827.998 173.4 826.527 173.285 828.003 170.794C828.896 169.287 829.427 170.945 829.793 170.208" stroke="#57B760" stroke-opacity="0.18" stroke-width="1.66333" stroke-linecap="round" stroke-linejoin="round"/>
<path d="M423.175 288.414C423.8 287.731 424.997 286.466 423.319 286.242C422.94 286.192 422.585 286 422.213 286.145C421.066 286.592 420 287.577 420 288.748C420 290.618 422.384 291.023 424.115 290.999C427.037 290.958 427.926 288.509 428.958 286.525C430 284.521 431.158 282.549 432.239 280.559C433.463 278.308 435.47 276.514 436.74 274.283C437.284 273.326 437.995 272.484 438.696 271.611C439.783 270.256 440.558 268.889 441.336 267.386C441.974 266.154 442.682 265.028 443.463 263.862C443.779 263.39 443.661 262.667 444.265 263.172C444.724 263.554 445.454 263.806 446.072 263.903C448.772 264.329 451.255 264.779 454.035 264.589C456.847 264.396 459.658 264.05 462.426 263.588C463.368 263.432 462.966 263.62 462.523 264.112C461.77 264.945 461.127 265.829 460.406 266.673C459.466 267.774 459.135 269.101 458.578 270.36C457.967 271.744 457.239 273.066 456.654 274.473C455.525 277.192 453.877 279.671 451.839 281.953C450.657 283.276 449.198 285.585 446.986 285.492C443.562 285.347 445.874 279.548 447.509 278.415C448.39 277.804 449.353 278.461 449.46 279.281C449.608 280.407 449.159 281.949 447.889 282.5C446.549 283.08 445.521 283.011 446.553 281.513C447.177 280.607 447.548 281.604 447.803 281.161" stroke="#57B760" stroke-opacity="0.18" stroke-width="1.66333" stroke-linecap="round" stroke-linejoin="round"/>
<path d="M943.175 167.414C943.8 166.731 944.997 165.466 943.319 165.242C942.94 165.192 942.585 165 942.213 165.145C941.066 165.592 940 166.577 940 167.748C940 169.618 942.384 170.023 944.115 169.999C947.037 169.958 947.926 167.509 948.958 165.525C950 163.521 951.158 161.549 952.239 159.559C953.463 157.308 955.47 155.514 956.74 153.283C957.284 152.326 957.995 151.484 958.696 150.611C959.783 149.256 960.558 147.889 961.336 146.386C961.974 145.154 962.682 144.028 963.463 142.862C963.779 142.39 963.661 141.667 964.265 142.172C964.724 142.554 965.454 142.806 966.072 142.903C968.772 143.329 971.255 143.779 974.035 143.589C976.847 143.396 979.658 143.05 982.426 142.588C983.368 142.432 982.966 142.62 982.523 143.112C981.77 143.945 981.127 144.829 980.406 145.673C979.466 146.774 979.135 148.101 978.578 149.36C977.967 150.744 977.239 152.066 976.654 153.473C975.525 156.192 973.877 158.671 971.839 160.953C970.657 162.276 969.198 164.585 966.986 164.492C963.562 164.347 965.874 158.548 967.509 157.415C968.39 156.804 969.353 157.461 969.46 158.281C969.608 159.407 969.159 160.949 967.889 161.5C966.549 162.08 965.521 162.011 966.553 160.513C967.177 159.607 967.548 160.604 967.803 160.161" stroke="#57B760" stroke-opacity="0.18" stroke-width="1.66333" stroke-linecap="round" stroke-linejoin="round"/>
</g>
<defs>
<clipPath id="clip0_16_466">
<rect width="1011" height="322" fill="white"/>
</clipPath>
</defs>
</svg>
