<svg width="152" height="181" viewBox="0 0 152 181" fill="none" xmlns="http://www.w3.org/2000/svg">
<path fill-rule="evenodd" clip-rule="evenodd" d="M66.5376 135.058L68.8479 105.973C68.2088 105.903 67.5579 105.88 66.8953 105.903C53.8222 105.968 49.6238 120.175 56.3934 129.16C59.1289 132.781 62.2366 133.514 66.5376 135.058ZM90.5963 126.672C94.1351 121.78 95.0293 116.114 93.9679 110.595C91.6635 98.6701 82.8416 89.9936 73.8702 82.5347L73.445 87.8956L72.9613 94.2365C87.6176 98.7728 95.8473 122.341 78.9335 130.008C85.9757 122.652 84.8001 110.53 72.3309 106.848L70.0382 135.595C77.9542 136.463 86.0696 132.919 90.5963 126.672ZM71.7504 46.2001C70.0382 39.3545 67.2061 34.824 64.4736 31.9456C61.102 28.4098 57.8682 27.3828 57.0648 27.6322C56.2527 27.8816 55.2471 29.4837 54.7927 32.4737C54.347 35.4549 54.4584 39.8152 55.8745 45.5751C58.3138 53.1102 62.3275 58.2862 65.7284 61.5784C69.1294 64.8648 71.9586 67.3266 71.9586 67.3266C72.6593 60.0644 73.5125 53.2599 71.7504 46.2001ZM49.6355 103.019C53.6962 96.7188 61.316 92.5962 69.8242 93.6936L70.3989 86.3757L70.9207 80.0289C64.8958 74.8236 59.7856 69.6564 56.3026 62.6171C52.8137 55.572 50.9607 46.652 51.465 33.935C51.8315 25.9157 53.0189 21.2151 54.4291 18.495C55.8481 15.7662 57.49 15.0091 58.7448 14.8683C60.0055 14.7245 65.9278 17.0866 70.6012 24.9386C75.2716 32.7965 78.5347 47.8169 74.7849 69.6388C82.2259 75.9063 93.5604 85.8974 98.7234 95.5422C105.244 107.71 103.611 120.888 96.032 129.978C90.3295 136.827 81.2819 140.207 69.7627 140.234L67.8511 162.546C67.5931 165.547 67.253 172.721 73.8907 175.304C75.1309 175.788 75.3977 175.43 74.521 174.409C71.7534 171.16 71.3283 166.381 74.48 163.165C76.5938 161.008 79.6928 160.36 82.352 161.219C93.7305 164.896 89.9015 178.531 80.027 180.45C72.1316 181.985 63.081 175.679 63.8403 165.521L65.7783 139.758C60.4247 138.787 55.3732 135.313 52.5205 132.343C50.2835 130.014 48.325 127.167 47.1904 123.764C45.141 116.839 45.5749 109.318 49.6355 103.019Z" fill="#57B760"/>
<path fill-rule="evenodd" clip-rule="evenodd" d="M104.599 125.818C110.797 123.18 116.986 121.686 117.64 118.802C118.947 112.975 116.98 107.42 117.821 104.145C117.939 102.954 118.475 101.572 119.413 101.155C120.615 100.613 121.985 100.68 122.574 99.8644C123.067 99.1748 122.691 97.3497 121.539 95.956C120.085 94.1866 115.628 93.0188 115.171 90.5423C115.511 89.2307 117.001 87.2208 118.443 85.5277C119.929 83.773 121.762 82.2766 120.917 80.695C120.088 79.1604 119.158 79.7385 115.684 75.3342C114.157 73.4064 114.629 73.2068 115.658 71.6341C117.502 68.7937 121.8 64.0491 117.871 62.0157C114.491 60.2727 103.165 54.2663 100.395 52.3385C94.4869 48.2394 94.6716 41.9132 93.5106 38.4508C92.1473 34.3693 79.2736 22.3741 72.331 18.6154C73.2222 19.7421 74.0901 20.995 74.9227 22.3888L74.9198 22.3917L74.9315 22.4035C75.6674 23.6476 76.3945 25.0912 77.0893 26.7344C77.749 28.2983 78.3588 30.0031 78.8895 31.8429C81.3992 40.4754 82.4488 52.4794 80.1883 67.6523C83.5541 70.5367 87.4475 74.0079 91.1827 77.8107C95.8766 82.5876 100.301 87.8751 103.148 93.189L103.171 93.2301C104.238 95.2283 105.097 97.1942 105.757 99.1132C106.44 101.079 106.944 103.077 107.29 105.084C108.539 112.373 107.525 119.544 104.599 125.818Z" fill="#57B760"/>
<mask id="mask0_711_3" style="mask-type:luminance" maskUnits="userSpaceOnUse" x="0" y="0" width="152" height="152">
<path d="M0.450958 0.581543H151.658V151.566H0.450958V0.581543Z" fill="white"/>
</mask>
<g mask="url(#mask0_711_3)">
<path d="M46.1995 99.1661C30.001 100.847 16.7256 98.1097 1.92275 92.0006C5.8954 106.821 12.407 119.867 23.9116 130.624C33.9356 139.993 46.2962 146.927 59.9557 149.864L60.4834 143.183C57.8829 142.634 54.4438 141.513 51.5032 140.386C42.1623 136.789 33.7098 131.135 26.7613 124.004C20.9358 118.027 16.1275 110.988 12.8058 103.33C23.4044 106.543 33.2466 106.895 42.5317 106.22C43.4083 103.702 44.6397 101.317 46.1995 99.1661ZM65.3825 85.783C43.1327 88.6732 21.2436 89.6445 0.304377 79.4392C0.421651 82.0536 0.682585 84.6298 1.06079 87.165C18.8747 94.9848 36.0611 95.3926 50.9901 94.1397C54.9129 91.0177 59.8003 88.9754 65.1626 88.5823L65.3825 85.783ZM58.4546 74.8148C41.8486 76.772 21.0648 77.5965 0.697244 67.4734C0.424582 69.8384 0.269195 72.2415 0.228149 74.6681C23.5861 85.3458 46.7272 83.1422 64.2713 80.8095C62.2278 78.9169 60.2635 76.9333 58.4546 74.8148ZM51.3243 63.832C34.8796 65.0673 17.8456 63.6119 2.80231 56.3819C2.21301 58.5709 1.71753 60.8038 1.32759 63.0661C18.086 70.704 36.8029 71.9598 54.951 70.2315C53.576 68.1981 52.3622 66.0591 51.3243 63.832ZM74.0989 151.369C79.5668 151.554 84.9731 151.108 90.2328 150.116C95.4603 149.121 100.529 147.572 105.364 145.524C127.239 136.269 144.211 116.839 149.752 92.9777C154.988 70.4164 149.224 46.0798 134.357 28.093C115.241 4.97705 84.2929 -4.49173 55.9273 3.38963C33.5251 9.61315 14.603 25.9715 5.84556 48.3509L4.69335 51.291L7.57535 52.5997C20.924 58.6853 34.9705 60.308 49.4362 59.1167C48.7326 57.0627 48.1462 54.8767 47.6771 52.5352C35.9351 53.3744 24.3396 52.2359 13.3247 47.8081C21.7655 28.9498 38.304 15.2146 57.7069 9.82148C83.5687 2.6414 111.764 11.2505 129.194 32.3329C142.616 48.571 147.917 70.4927 143.367 90.9062C138.462 112.916 122.888 130.862 102.769 139.377C98.3892 141.231 93.7745 142.64 88.9985 143.543C84.1229 144.471 79.1065 144.776 74.4419 144.861L74.0989 151.369Z" fill="#57B760"/>
</g>
</svg>
