<svg width="94" height="92" viewBox="0 0 94 92" fill="none" xmlns="http://www.w3.org/2000/svg">
<path fill-rule="evenodd" clip-rule="evenodd" d="M47.7511 68.9545L48.6028 58.2333C48.3672 58.2074 48.1272 58.1987 47.883 58.2074C43.0639 58.2312 41.5162 63.4685 44.0117 66.7804C45.0201 68.1152 46.1657 68.3856 47.7511 68.9545ZM56.6198 65.8632C57.9243 64.0601 58.2539 61.9715 57.8627 59.9369C57.0132 55.5411 53.7612 52.3427 50.4541 49.5932L50.2974 51.5693L50.1191 53.9068C55.5218 55.579 58.5555 64.2667 52.3206 67.093C54.9166 64.3814 54.4832 59.9131 49.8867 58.5557L49.0416 69.1525C51.9596 69.4726 54.9511 68.166 56.6198 65.8632ZM49.6727 36.1992C49.0416 33.6758 47.9975 32.0057 46.9903 30.9446C45.7474 29.6412 44.5553 29.2627 44.2592 29.3546C43.9598 29.4465 43.5891 30.0371 43.4216 31.1393C43.2573 32.2383 43.2984 33.8456 43.8204 35.9688C44.7196 38.7465 46.1992 40.6545 47.4528 41.8681C48.7065 43.0795 49.7494 43.987 49.7494 43.987C50.0078 41.31 50.3223 38.8017 49.6727 36.1992ZM41.5206 57.1441C43.0174 54.8218 45.8263 53.3021 48.9627 53.7067L49.1745 51.009L49.3669 48.6695C47.1459 46.7506 45.2621 44.8459 43.9782 42.251C42.6921 39.654 42.0091 36.3658 42.195 31.678C42.33 28.7218 42.7678 26.9891 43.2876 25.9864C43.8107 24.9805 44.4159 24.7014 44.8785 24.6495C45.3432 24.5965 47.5263 25.4672 49.2491 28.3617C50.9707 31.2583 52.1736 36.7952 50.7913 44.8394C53.5343 47.1498 57.7125 50.8327 59.6157 54.3881C62.0193 58.8737 61.4173 63.7313 58.6236 67.0822C56.5215 69.6068 53.1863 70.8528 48.94 70.8626L48.2353 79.0874C48.1402 80.1939 48.0148 82.8385 50.4617 83.7903C50.9188 83.9688 51.0172 83.8368 50.694 83.4604C49.6738 82.263 49.5171 80.5011 50.6789 79.3156C51.4581 78.5206 52.6005 78.2815 53.5807 78.5984C57.7752 79.9537 56.3637 84.9801 52.7237 85.6875C49.8132 86.2532 46.4769 83.9288 46.7568 80.1841L47.4712 70.6873C45.4977 70.3293 43.6356 69.0486 42.584 67.954C41.7594 67.0952 41.0375 66.046 40.6192 64.7913C39.8638 62.2386 40.0237 59.4664 41.5206 57.1441Z" fill="#57B760"/>
<path fill-rule="evenodd" clip-rule="evenodd" d="M61.7815 65.5485C64.0663 64.5761 66.3477 64.0255 66.5888 62.9623C67.0708 60.8142 66.3456 58.7666 66.6558 57.5595C66.699 57.1203 66.8968 56.6109 67.2426 56.4573C67.6857 56.2572 68.1904 56.2821 68.4077 55.9814C68.5892 55.7272 68.4509 55.0544 68.0262 54.5406C67.4901 53.8884 65.8474 53.4579 65.6788 52.545C65.8041 52.0615 66.3531 51.3206 66.8849 50.6965C67.4328 50.0497 68.1083 49.498 67.797 48.915C67.4912 48.3493 67.1486 48.5624 65.8679 46.9389C65.3048 46.2282 65.4788 46.1547 65.8582 45.5749C66.538 44.5279 68.1223 42.7789 66.6741 42.0293C65.428 41.3868 61.2531 39.1727 60.2317 38.4621C58.054 36.951 58.1221 34.619 57.6941 33.3427C57.1916 31.8381 52.446 27.4163 49.8867 26.0308C50.2153 26.4461 50.5352 26.908 50.8421 27.4218L50.841 27.4228L50.8454 27.4272C51.1166 27.8858 51.3846 28.4179 51.6408 29.0237C51.884 29.6002 52.1088 30.2286 52.3044 30.9068C53.2295 34.089 53.6164 38.514 52.7832 44.1071C54.0239 45.1704 55.4591 46.45 56.836 47.8518C58.5663 49.6127 60.1972 51.5618 61.2466 53.5207L61.2552 53.5358C61.6486 54.2724 61.9653 54.9971 62.2084 55.7045C62.4603 56.4292 62.6461 57.1658 62.7737 57.9056C63.2341 60.5924 62.8601 63.2359 61.7815 65.5485Z" fill="#57B760"/>
<mask id="mask0_516_200" style="mask-type:luminance" maskUnits="userSpaceOnUse" x="23" y="19" width="57" height="57">
<path d="M23.3898 19.383H79.1288V75.0399H23.3898V19.383Z" fill="white"/>
</mask>
<g mask="url(#mask0_516_200)">
<path d="M40.2539 55.724C34.2827 56.3438 29.389 55.3346 23.9323 53.0826C25.3967 58.546 27.7971 63.3549 32.038 67.3202C35.7331 70.7739 40.2896 73.3298 45.3248 74.4125L45.5194 71.9497C44.5607 71.7474 43.293 71.3342 42.209 70.9189C38.7657 69.5928 35.6499 67.5084 33.0885 64.8801C30.941 62.6768 29.1686 60.0819 27.9441 57.2588C31.851 58.4432 35.4791 58.573 38.9019 58.3242C39.225 57.3962 39.6789 56.5168 40.2539 55.724ZM47.3253 50.7906C39.1234 51.856 31.0545 52.214 23.3357 48.4521C23.3789 49.4158 23.4751 50.3655 23.6146 51.3001C30.1812 54.1826 36.5166 54.333 42.0199 53.8711C43.4659 52.7203 45.2675 51.9674 47.2442 51.8225L47.3253 50.7906ZM44.7715 46.7474C38.6501 47.4689 30.9886 47.7728 23.4805 44.0412C23.38 44.913 23.3227 45.7988 23.3076 46.6934C31.918 50.6294 40.4484 49.8171 46.9157 48.9572C46.1624 48.2596 45.4383 47.5284 44.7715 46.7474ZM42.1431 42.6989C36.0811 43.1542 29.8019 42.6177 24.2565 39.9526C24.0393 40.7595 23.8566 41.5826 23.7129 42.4165C29.8905 45.2321 36.7901 45.695 43.48 45.0579C42.9731 44.3083 42.5257 43.5198 42.1431 42.6989ZM50.5384 74.9674C52.554 75.0356 54.5469 74.8712 56.4858 74.5056C58.4128 74.1389 60.2814 73.5678 62.0636 72.8128C70.1271 69.4013 76.3836 62.2387 78.4263 53.4428C80.3565 45.1261 78.2317 36.1549 72.7512 29.5245C65.7047 21.0033 54.2962 17.5129 43.8399 20.4181C35.5818 22.7123 28.6066 28.7425 25.3783 36.9921L24.9536 38.0759L26.016 38.5583C30.9367 40.8017 36.1146 41.3998 41.4471 40.9607C41.1877 40.2035 40.9715 39.3977 40.7986 38.5345C36.4702 38.8439 32.1958 38.4242 28.1354 36.792C31.2469 29.8403 37.3434 24.7772 44.4959 22.7891C54.0292 20.1423 64.4229 23.3159 70.848 31.0875C75.7957 37.0732 77.7497 45.1542 76.0724 52.6792C74.2643 60.7925 68.5233 67.4078 61.1071 70.5468C59.4925 71.2304 57.7914 71.7496 56.0308 72.0827C54.2335 72.4245 52.3843 72.537 50.6648 72.5684L50.5384 74.9674Z" fill="#57B760"/>
</g>
</svg>
