<svg width="107" height="105" viewBox="0 0 107 105" fill="none" xmlns="http://www.w3.org/2000/svg">
<path d="M2.48655 17.4565C5.12552 9.41742 7.08196 -1.65851 17.4649 3.42827C22.3987 5.84538 27.3672 15.0572 27.9188 20.423C28.3764 24.8739 30.2806 30.7452 26.903 32.8263C24.2501 34.4609 20.4192 33.436 17.5322 29.5877C9.3336 18.6591 20.6715 14.2202 27.0421 16.8561C35.7375 20.454 49.3866 47.7133 43.3278 54.369C38.1329 60.0756 32.3786 48.7324 35.7816 43.2885C40.5686 35.6304 46.1836 36.4168 54.796 47.1947C61.5206 55.6101 61.8518 68.2895 58.4033 74.277C57.687 75.5206 55.7219 84.7993 54.7219 83.6435C44.854 72.2387 57.3991 60.5385 65.9345 64.1462C75.7414 68.2914 85.6624 72.6126 93.3104 82.8862C97.4231 88.4108 106.325 107.081 104.174 100.65C101.483 92.6013 98.4036 81.6722 99.8508 74.4336C100.281 72.2796 101.499 65.3001 100.616 72.1311C99.7071 79.1662 98.7551 85.2778 99.0583 92.4907C99.1258 94.0959 101.236 96.7526 102.049 98.2563C102.738 99.5299 98.5649 97.2738 98.0851 97.1256C93.9422 95.8463 90.5231 97.0519 87.408 98.7644C84.6276 100.293 81.6846 103.59 79.1231 101.737" stroke="#57B760" stroke-width="4" stroke-linecap="round" stroke-linejoin="round"/>
</svg>
